<mxfile host="app.diagrams.net" agent="Mozilla/5.0 (Windows NT 10.0; Win64; x64; rv:133.0) Gecko/20100101 Firefox/133.0" version="25.0.3">
  <diagram id="C5RBs43oDa-KdzZeNtuy" name="Page-1">
    <mxGraphModel dx="1194" dy="1691" grid="1" gridSize="10" guides="1" tooltips="1" connect="1" arrows="1" fold="1" page="1" pageScale="1" pageWidth="827" pageHeight="1169" math="0" shadow="0">
      <root>
        <mxCell id="WIyWlLk6GJQsqaUBKTNV-0" />
        <mxCell id="WIyWlLk6GJQsqaUBKTNV-1" parent="WIyWlLk6GJQsqaUBKTNV-0" />
        <mxCell id="zkfFHV4jXpPFQw0GAbJ--0" value="Person" style="swimlane;fontStyle=2;align=center;verticalAlign=top;childLayout=stackLayout;horizontal=1;startSize=26;horizontalStack=0;resizeParent=1;resizeLast=0;collapsible=1;marginBottom=0;rounded=0;shadow=0;strokeWidth=1;" parent="WIyWlLk6GJQsqaUBKTNV-1" vertex="1">
          <mxGeometry x="220" y="120" width="160" height="138" as="geometry">
            <mxRectangle x="230" y="140" width="160" height="26" as="alternateBounds" />
          </mxGeometry>
        </mxCell>
        <mxCell id="zkfFHV4jXpPFQw0GAbJ--1" value="Name" style="text;align=left;verticalAlign=top;spacingLeft=4;spacingRight=4;overflow=hidden;rotatable=0;points=[[0,0.5],[1,0.5]];portConstraint=eastwest;" parent="zkfFHV4jXpPFQw0GAbJ--0" vertex="1">
          <mxGeometry y="26" width="160" height="26" as="geometry" />
        </mxCell>
        <mxCell id="zkfFHV4jXpPFQw0GAbJ--2" value="Phone Number" style="text;align=left;verticalAlign=top;spacingLeft=4;spacingRight=4;overflow=hidden;rotatable=0;points=[[0,0.5],[1,0.5]];portConstraint=eastwest;rounded=0;shadow=0;html=0;" parent="zkfFHV4jXpPFQw0GAbJ--0" vertex="1">
          <mxGeometry y="52" width="160" height="26" as="geometry" />
        </mxCell>
        <mxCell id="zkfFHV4jXpPFQw0GAbJ--3" value="Email Address" style="text;align=left;verticalAlign=top;spacingLeft=4;spacingRight=4;overflow=hidden;rotatable=0;points=[[0,0.5],[1,0.5]];portConstraint=eastwest;rounded=0;shadow=0;html=0;" parent="zkfFHV4jXpPFQw0GAbJ--0" vertex="1">
          <mxGeometry y="78" width="160" height="26" as="geometry" />
        </mxCell>
        <mxCell id="zkfFHV4jXpPFQw0GAbJ--4" value="" style="line;html=1;strokeWidth=1;align=left;verticalAlign=middle;spacingTop=-1;spacingLeft=3;spacingRight=3;rotatable=0;labelPosition=right;points=[];portConstraint=eastwest;" parent="zkfFHV4jXpPFQw0GAbJ--0" vertex="1">
          <mxGeometry y="104" width="160" height="8" as="geometry" />
        </mxCell>
        <mxCell id="zkfFHV4jXpPFQw0GAbJ--5" value="Purchase Parking Pass" style="text;align=left;verticalAlign=top;spacingLeft=4;spacingRight=4;overflow=hidden;rotatable=0;points=[[0,0.5],[1,0.5]];portConstraint=eastwest;" parent="zkfFHV4jXpPFQw0GAbJ--0" vertex="1">
          <mxGeometry y="112" width="160" height="26" as="geometry" />
        </mxCell>
        <mxCell id="zkfFHV4jXpPFQw0GAbJ--12" value="" style="endArrow=block;endSize=10;endFill=0;shadow=0;strokeWidth=1;rounded=0;curved=0;edgeStyle=elbowEdgeStyle;elbow=vertical;" parent="WIyWlLk6GJQsqaUBKTNV-1" target="zkfFHV4jXpPFQw0GAbJ--0" edge="1">
          <mxGeometry width="160" relative="1" as="geometry">
            <mxPoint x="200" y="360" as="sourcePoint" />
            <mxPoint x="200" y="203" as="targetPoint" />
          </mxGeometry>
        </mxCell>
        <mxCell id="zkfFHV4jXpPFQw0GAbJ--13" value="Professor" style="swimlane;fontStyle=0;align=center;verticalAlign=top;childLayout=stackLayout;horizontal=1;startSize=26;horizontalStack=0;resizeParent=1;resizeLast=0;collapsible=1;marginBottom=0;rounded=0;shadow=0;strokeWidth=1;" parent="WIyWlLk6GJQsqaUBKTNV-1" vertex="1">
          <mxGeometry x="330" y="360" width="160" height="70" as="geometry">
            <mxRectangle x="340" y="380" width="170" height="26" as="alternateBounds" />
          </mxGeometry>
        </mxCell>
        <mxCell id="zkfFHV4jXpPFQw0GAbJ--14" value="Salary" style="text;align=left;verticalAlign=top;spacingLeft=4;spacingRight=4;overflow=hidden;rotatable=0;points=[[0,0.5],[1,0.5]];portConstraint=eastwest;" parent="zkfFHV4jXpPFQw0GAbJ--13" vertex="1">
          <mxGeometry y="26" width="160" height="26" as="geometry" />
        </mxCell>
        <mxCell id="zkfFHV4jXpPFQw0GAbJ--15" value="" style="line;html=1;strokeWidth=1;align=left;verticalAlign=middle;spacingTop=-1;spacingLeft=3;spacingRight=3;rotatable=0;labelPosition=right;points=[];portConstraint=eastwest;" parent="zkfFHV4jXpPFQw0GAbJ--13" vertex="1">
          <mxGeometry y="52" width="160" height="8" as="geometry" />
        </mxCell>
        <mxCell id="zkfFHV4jXpPFQw0GAbJ--16" value="" style="endArrow=block;endSize=10;endFill=0;shadow=0;strokeWidth=1;rounded=0;curved=0;edgeStyle=elbowEdgeStyle;elbow=vertical;" parent="WIyWlLk6GJQsqaUBKTNV-1" source="zkfFHV4jXpPFQw0GAbJ--13" target="zkfFHV4jXpPFQw0GAbJ--0" edge="1">
          <mxGeometry width="160" relative="1" as="geometry">
            <mxPoint x="210" y="373" as="sourcePoint" />
            <mxPoint x="310" y="271" as="targetPoint" />
          </mxGeometry>
        </mxCell>
        <mxCell id="zkfFHV4jXpPFQw0GAbJ--17" value="Address" style="swimlane;fontStyle=0;align=center;verticalAlign=top;childLayout=stackLayout;horizontal=1;startSize=26;horizontalStack=0;resizeParent=1;resizeLast=0;collapsible=1;marginBottom=0;rounded=0;shadow=0;strokeWidth=1;" parent="WIyWlLk6GJQsqaUBKTNV-1" vertex="1">
          <mxGeometry x="508" y="120" width="160" height="216" as="geometry">
            <mxRectangle x="550" y="140" width="160" height="26" as="alternateBounds" />
          </mxGeometry>
        </mxCell>
        <mxCell id="zkfFHV4jXpPFQw0GAbJ--18" value="Street" style="text;align=left;verticalAlign=top;spacingLeft=4;spacingRight=4;overflow=hidden;rotatable=0;points=[[0,0.5],[1,0.5]];portConstraint=eastwest;" parent="zkfFHV4jXpPFQw0GAbJ--17" vertex="1">
          <mxGeometry y="26" width="160" height="26" as="geometry" />
        </mxCell>
        <mxCell id="zkfFHV4jXpPFQw0GAbJ--19" value="City" style="text;align=left;verticalAlign=top;spacingLeft=4;spacingRight=4;overflow=hidden;rotatable=0;points=[[0,0.5],[1,0.5]];portConstraint=eastwest;rounded=0;shadow=0;html=0;" parent="zkfFHV4jXpPFQw0GAbJ--17" vertex="1">
          <mxGeometry y="52" width="160" height="26" as="geometry" />
        </mxCell>
        <mxCell id="zkfFHV4jXpPFQw0GAbJ--20" value="State" style="text;align=left;verticalAlign=top;spacingLeft=4;spacingRight=4;overflow=hidden;rotatable=0;points=[[0,0.5],[1,0.5]];portConstraint=eastwest;rounded=0;shadow=0;html=0;" parent="zkfFHV4jXpPFQw0GAbJ--17" vertex="1">
          <mxGeometry y="78" width="160" height="26" as="geometry" />
        </mxCell>
        <mxCell id="zkfFHV4jXpPFQw0GAbJ--21" value="Postal Code" style="text;align=left;verticalAlign=top;spacingLeft=4;spacingRight=4;overflow=hidden;rotatable=0;points=[[0,0.5],[1,0.5]];portConstraint=eastwest;rounded=0;shadow=0;html=0;" parent="zkfFHV4jXpPFQw0GAbJ--17" vertex="1">
          <mxGeometry y="104" width="160" height="26" as="geometry" />
        </mxCell>
        <mxCell id="zkfFHV4jXpPFQw0GAbJ--22" value="Country" style="text;align=left;verticalAlign=top;spacingLeft=4;spacingRight=4;overflow=hidden;rotatable=0;points=[[0,0.5],[1,0.5]];portConstraint=eastwest;rounded=0;shadow=0;html=0;" parent="zkfFHV4jXpPFQw0GAbJ--17" vertex="1">
          <mxGeometry y="130" width="160" height="26" as="geometry" />
        </mxCell>
        <mxCell id="zkfFHV4jXpPFQw0GAbJ--23" value="" style="line;html=1;strokeWidth=1;align=left;verticalAlign=middle;spacingTop=-1;spacingLeft=3;spacingRight=3;rotatable=0;labelPosition=right;points=[];portConstraint=eastwest;" parent="zkfFHV4jXpPFQw0GAbJ--17" vertex="1">
          <mxGeometry y="156" width="160" height="8" as="geometry" />
        </mxCell>
        <mxCell id="zkfFHV4jXpPFQw0GAbJ--24" value="Validate" style="text;align=left;verticalAlign=top;spacingLeft=4;spacingRight=4;overflow=hidden;rotatable=0;points=[[0,0.5],[1,0.5]];portConstraint=eastwest;" parent="zkfFHV4jXpPFQw0GAbJ--17" vertex="1">
          <mxGeometry y="164" width="160" height="26" as="geometry" />
        </mxCell>
        <mxCell id="zkfFHV4jXpPFQw0GAbJ--25" value="Output As Label" style="text;align=left;verticalAlign=top;spacingLeft=4;spacingRight=4;overflow=hidden;rotatable=0;points=[[0,0.5],[1,0.5]];portConstraint=eastwest;" parent="zkfFHV4jXpPFQw0GAbJ--17" vertex="1">
          <mxGeometry y="190" width="160" height="26" as="geometry" />
        </mxCell>
        <mxCell id="zkfFHV4jXpPFQw0GAbJ--26" value="" style="endArrow=open;shadow=0;strokeWidth=1;rounded=0;curved=0;endFill=1;edgeStyle=elbowEdgeStyle;elbow=vertical;" parent="WIyWlLk6GJQsqaUBKTNV-1" source="zkfFHV4jXpPFQw0GAbJ--0" target="zkfFHV4jXpPFQw0GAbJ--17" edge="1">
          <mxGeometry x="0.5" y="41" relative="1" as="geometry">
            <mxPoint x="380" y="192" as="sourcePoint" />
            <mxPoint x="540" y="192" as="targetPoint" />
            <mxPoint x="-40" y="32" as="offset" />
          </mxGeometry>
        </mxCell>
        <mxCell id="zkfFHV4jXpPFQw0GAbJ--27" value="0..1" style="resizable=0;align=left;verticalAlign=bottom;labelBackgroundColor=none;fontSize=12;" parent="zkfFHV4jXpPFQw0GAbJ--26" connectable="0" vertex="1">
          <mxGeometry x="-1" relative="1" as="geometry">
            <mxPoint y="4" as="offset" />
          </mxGeometry>
        </mxCell>
        <mxCell id="zkfFHV4jXpPFQw0GAbJ--28" value="1" style="resizable=0;align=right;verticalAlign=bottom;labelBackgroundColor=none;fontSize=12;" parent="zkfFHV4jXpPFQw0GAbJ--26" connectable="0" vertex="1">
          <mxGeometry x="1" relative="1" as="geometry">
            <mxPoint x="-7" y="4" as="offset" />
          </mxGeometry>
        </mxCell>
        <mxCell id="zkfFHV4jXpPFQw0GAbJ--29" value="lives at" style="text;html=1;resizable=0;points=[];;align=center;verticalAlign=middle;labelBackgroundColor=none;rounded=0;shadow=0;strokeWidth=1;fontSize=12;" parent="zkfFHV4jXpPFQw0GAbJ--26" vertex="1" connectable="0">
          <mxGeometry x="0.5" y="49" relative="1" as="geometry">
            <mxPoint x="-38" y="40" as="offset" />
          </mxGeometry>
        </mxCell>
        <UserObject label="" plantUmlData="{&#xa;  &quot;data&quot;: &quot;@startuml\nactor User\nentity API\nentity Database\n\n&#39; User requests to place an order\nUser -&gt; API: POST /api/orders\nAPI -&gt; Database: Validate Basket\nDatabase -&gt; API: Return Basket Info\nAPI -&gt; Database: Create Order Record\nDatabase -&gt; API: Return Order Details\nAPI -&gt; User: Order Created\n\n&#39; User requests to register\nUser -&gt; API: POST /users/register\nAPI -&gt; Database: Validate User Data\nDatabase -&gt; API: Return User ID\nAPI -&gt; User: User Registered\n\n&#39; User requests to login\nUser -&gt; API: POST /users/login\nAPI -&gt; Database: Validate Login Credentials\nDatabase -&gt; API: Return User Details\nAPI -&gt; User: User Logged In\n\n&#39; User updates profile\nUser -&gt; API: PUT /users/{user_id}\nAPI -&gt; Database: Update User Profile\nDatabase -&gt; API: Return Updated User Details\nAPI -&gt; User: Profile Updated\n\n&#39; User adds item to basket\nUser -&gt; API: POST /basket/{user_id}/items\nAPI -&gt; Database: Add Item to Basket\nDatabase -&gt; API: Return Updated Basket\nAPI -&gt; User: Item Added to Basket\n\n&#39; User removes item from basket\nUser -&gt; API: DELETE /basket/{user_id}/items/{food_id}\nAPI -&gt; Database: Remove Item from Basket\nDatabase -&gt; API: Return Updated Basket\nAPI -&gt; User: Item Removed from Basket\n\n&#39; User updates item quantity in basket\nUser -&gt; API: PUT /basket/{user_id}/items/{food_id}\nAPI -&gt; Database: Update Item Quantity in Basket\nDatabase -&gt; API: Return Updated Basket\nAPI -&gt; User: Item Quantity Updated\n\n&#39; User proceeds to checkout\nUser -&gt; API: POST /basket/{user_id}/checkout\nAPI -&gt; Database: Validate Basket for Checkout\nDatabase -&gt; API: Return Basket Info\nAPI -&gt; Database: Create Payment Record\nDatabase -&gt; API: Return Payment Details\nAPI -&gt; User: Checkout Complete, Proceed to Payment\n\n&#39; User makes a payment\nUser -&gt; API: POST /payments\nAPI -&gt; Database: Create Payment Record\nDatabase -&gt; API: Return Payment Details\nAPI -&gt; User: Payment Created\n\n&#39; User views order details\nUser -&gt; API: GET /orders/{order_id}\nAPI -&gt; Database: Retrieve Order Details\nDatabase -&gt; API: Return Order Details\nAPI -&gt; User: Return Order Information\n\n&#39; User views food details\nUser -&gt; API: GET /foods/{food_id}\nAPI -&gt; Database: Retrieve Food Details\nDatabase -&gt; API: Return Food Details\nAPI -&gt; User: Return Food Information\n\n&#39; User views food categories\nUser -&gt; API: GET /food-categories\nAPI -&gt; Database: Retrieve Food Categories\nDatabase -&gt; API: Return Food Categories\nAPI -&gt; User: Return Food Categories Information\n\n&#39; User views menu\nUser -&gt; API: GET /menus\nAPI -&gt; Database: Retrieve Menus\nDatabase -&gt; API: Return Menus\nAPI -&gt; User: Return Menu Information\n\n&#39; User views offers\nUser -&gt; API: GET /offers\nAPI -&gt; Database: Retrieve Offers\nDatabase -&gt; API: Return Offers\nAPI -&gt; User: Return Offer Information\n\n&#39; Restaurant adds food to menu\nRestaurant -&gt; API: POST /restaurants/{restaurant_id}/foods\nAPI -&gt; Database: Add Food to Menu\nDatabase -&gt; API: Return Food Added to Menu\nAPI -&gt; Restaurant: Food Added to Menu\n\n&#39; Restaurant updates food details\nRestaurant -&gt; API: PUT /foods/{food_id}\nAPI -&gt; Database: Update Food Details\nDatabase -&gt; API: Return Updated Food Details\nAPI -&gt; Restaurant: Food Updated\n\n&#39; Restaurant deletes food from menu\nRestaurant -&gt; API: DELETE /foods/{food_id}\nAPI -&gt; Database: Delete Food from Menu\nDatabase -&gt; API: Return Deletion Confirmation\nAPI -&gt; Restaurant: Food Deleted\n\n&#39; Restaurant views orders\nRestaurant -&gt; API: GET /restaurants/{restaurant_id}/orders\nAPI -&gt; Database: Retrieve Restaurant Orders\nDatabase -&gt; API: Return Orders\nAPI -&gt; Restaurant: Return Orders Information\n@enduml\n&quot;,&#xa;  &quot;format&quot;: &quot;svg&quot;&#xa;}" id="i5V2nuic_rAT0it3ug4K-3">
          <mxCell style="shape=image;noLabel=1;verticalAlign=top;aspect=fixed;imageAspect=0;image=data:image/svg+xml,PD94bWwgdmVyc2lvbj0iMS4wIiBlbmNvZGluZz0idXMtYXNjaWkiIHN0YW5kYWxvbmU9Im5vIj8+PHN2ZyB4bWxucz0iaHR0cDovL3d3dy53My5vcmcvMjAwMC9zdmciIHhtbG5zOnhsaW5rPSJodHRwOi8vd3d3LnczLm9yZy8xOTk5L3hsaW5rIiBjb250ZW50U3R5bGVUeXBlPSJ0ZXh0L2NzcyIgaGVpZ2h0PSIyMzAwcHgiIHByZXNlcnZlQXNwZWN0UmF0aW89Im5vbmUiIHN0eWxlPSJ3aWR0aDo2NzBweDtoZWlnaHQ6MjMwMHB4O2JhY2tncm91bmQ6I0ZGRkZGRjsiIHZlcnNpb249IjEuMSIgdmlld0JveD0iMCAwIDY3MCAyMzAwIiB3aWR0aD0iNjcwcHgiIHpvb21BbmRQYW49Im1hZ25pZnkiPjxkZWZzLz48Zz48bGluZSBzdHlsZT0ic3Ryb2tlOiMxODE4MTg7c3Ryb2tlLXdpZHRoOjAuNTtzdHJva2UtZGFzaGFycmF5OjUuMCw1LjA7IiB4MT0iMjIiIHgyPSIyMiIgeTE9Ijc5Ljk4NDQiIHkyPSIyMjIxLjQ1MzEiLz48bGluZSBzdHlsZT0ic3Ryb2tlOiMxODE4MTg7c3Ryb2tlLXdpZHRoOjAuNTtzdHJva2UtZGFzaGFycmF5OjUuMCw1LjA7IiB4MT0iMzE0IiB4Mj0iMzE0IiB5MT0iNzkuOTg0NCIgeTI9IjIyMjEuNDUzMSIvPjxsaW5lIHN0eWxlPSJzdHJva2U6IzE4MTgxODtzdHJva2Utd2lkdGg6MC41O3N0cm9rZS1kYXNoYXJyYXk6NS4wLDUuMDsiIHgxPSI1MzkiIHgyPSI1MzkiIHkxPSI3OS45ODQ0IiB5Mj0iMjIyMS40NTMxIi8+PGxpbmUgc3R5bGU9InN0cm9rZTojMTgxODE4O3N0cm9rZS13aWR0aDowLjU7c3Ryb2tlLWRhc2hhcnJheTo1LjAsNS4wOyIgeDE9IjYyMiIgeDI9IjYyMiIgeTE9Ijc5Ljk4NDQiIHkyPSIyMjIxLjQ1MzEiLz48dGV4dCBmaWxsPSIjMDAwMDAwIiBmb250LWZhbWlseT0ic2Fucy1zZXJpZiIgZm9udC1zaXplPSIxNCIgbGVuZ3RoQWRqdXN0PSJzcGFjaW5nIiB0ZXh0TGVuZ3RoPSIyOCIgeD0iNSIgeT0iNzguMjM0NCI+VXNlcjwvdGV4dD48ZWxsaXBzZSBjeD0iMjIiIGN5PSIxMy41IiBmaWxsPSIjRTJFMkYwIiByeD0iOCIgcnk9IjgiIHN0eWxlPSJzdHJva2U6IzE4MTgxODtzdHJva2Utd2lkdGg6MC41OyIvPjxwYXRoIGQ9Ik0yMiwyMS41IEwyMiw0OC41IE05LDI5LjUgTDM1LDI5LjUgTTIyLDQ4LjUgTDksNjMuNSBNMjIsNDguNSBMMzUsNjMuNSAiIGZpbGw9Im5vbmUiIHN0eWxlPSJzdHJva2U6IzE4MTgxODtzdHJva2Utd2lkdGg6MC41OyIvPjx0ZXh0IGZpbGw9IiMwMDAwMDAiIGZvbnQtZmFtaWx5PSJzYW5zLXNlcmlmIiBmb250LXNpemU9IjE0IiBsZW5ndGhBZGp1c3Q9InNwYWNpbmciIHRleHRMZW5ndGg9IjI4IiB4PSI1IiB5PSIyMjMzLjY4NzUiPlVzZXI8L3RleHQ+PGVsbGlwc2UgY3g9IjIyIiBjeT0iMjI0My45Mzc1IiBmaWxsPSIjRTJFMkYwIiByeD0iOCIgcnk9IjgiIHN0eWxlPSJzdHJva2U6IzE4MTgxODtzdHJva2Utd2lkdGg6MC41OyIvPjxwYXRoIGQ9Ik0yMiwyMjUxLjkzNzUgTDIyLDIyNzguOTM3NSBNOSwyMjU5LjkzNzUgTDM1LDIyNTkuOTM3NSBNMjIsMjI3OC45Mzc1IEw5LDIyOTMuOTM3NSBNMjIsMjI3OC45Mzc1IEwzNSwyMjkzLjkzNzUgIiBmaWxsPSJub25lIiBzdHlsZT0ic3Ryb2tlOiMxODE4MTg7c3Ryb2tlLXdpZHRoOjAuNTsiLz48dGV4dCBmaWxsPSIjMDAwMDAwIiBmb250LWZhbWlseT0ic2Fucy1zZXJpZiIgZm9udC1zaXplPSIxNCIgbGVuZ3RoQWRqdXN0PSJzcGFjaW5nIiB0ZXh0TGVuZ3RoPSIyMSIgeD0iMzAwLjUiIHk9Ijc4LjIzNDQiPkFQSTwvdGV4dD48ZWxsaXBzZSBjeD0iMzE0IiBjeT0iNDkiIGZpbGw9IiNFMkUyRjAiIHJ4PSIxMiIgcnk9IjEyIiBzdHlsZT0ic3Ryb2tlOiMxODE4MTg7c3Ryb2tlLXdpZHRoOjAuNTsiLz48bGluZSBzdHlsZT0ic3Ryb2tlOiMxODE4MTg7c3Ryb2tlLXdpZHRoOjAuNTsiIHgxPSIzMDIiIHgyPSIzMjYiIHkxPSI2MyIgeTI9IjYzIi8+PHRleHQgZmlsbD0iIzAwMDAwMCIgZm9udC1mYW1pbHk9InNhbnMtc2VyaWYiIGZvbnQtc2l6ZT0iMTQiIGxlbmd0aEFkanVzdD0ic3BhY2luZyIgdGV4dExlbmd0aD0iMjEiIHg9IjMwMC41IiB5PSIyMjMzLjY4NzUiPkFQSTwvdGV4dD48ZWxsaXBzZSBjeD0iMzE0IiBjeT0iMjI1MS40Mzc1IiBmaWxsPSIjRTJFMkYwIiByeD0iMTIiIHJ5PSIxMiIgc3R5bGU9InN0cm9rZTojMTgxODE4O3N0cm9rZS13aWR0aDowLjU7Ii8+PGxpbmUgc3R5bGU9InN0cm9rZTojMTgxODE4O3N0cm9rZS13aWR0aDowLjU7IiB4MT0iMzAyIiB4Mj0iMzI2IiB5MT0iMjI2NS40Mzc1IiB5Mj0iMjI2NS40Mzc1Ii8+PHRleHQgZmlsbD0iIzAwMDAwMCIgZm9udC1mYW1pbHk9InNhbnMtc2VyaWYiIGZvbnQtc2l6ZT0iMTQiIGxlbmd0aEFkanVzdD0ic3BhY2luZyIgdGV4dExlbmd0aD0iNTYiIHg9IjUwOCIgeT0iNzguMjM0NCI+RGF0YWJhc2U8L3RleHQ+PGVsbGlwc2UgY3g9IjUzOSIgY3k9IjQ5IiBmaWxsPSIjRTJFMkYwIiByeD0iMTIiIHJ5PSIxMiIgc3R5bGU9InN0cm9rZTojMTgxODE4O3N0cm9rZS13aWR0aDowLjU7Ii8+PGxpbmUgc3R5bGU9InN0cm9rZTojMTgxODE4O3N0cm9rZS13aWR0aDowLjU7IiB4MT0iNTI3IiB4Mj0iNTUxIiB5MT0iNjMiIHkyPSI2MyIvPjx0ZXh0IGZpbGw9IiMwMDAwMDAiIGZvbnQtZmFtaWx5PSJzYW5zLXNlcmlmIiBmb250LXNpemU9IjE0IiBsZW5ndGhBZGp1c3Q9InNwYWNpbmciIHRleHRMZW5ndGg9IjU2IiB4PSI1MDgiIHk9IjIyMzMuNjg3NSI+RGF0YWJhc2U8L3RleHQ+PGVsbGlwc2UgY3g9IjUzOSIgY3k9IjIyNTEuNDM3NSIgZmlsbD0iI0UyRTJGMCIgcng9IjEyIiByeT0iMTIiIHN0eWxlPSJzdHJva2U6IzE4MTgxODtzdHJva2Utd2lkdGg6MC41OyIvPjxsaW5lIHN0eWxlPSJzdHJva2U6IzE4MTgxODtzdHJva2Utd2lkdGg6MC41OyIgeDE9IjUyNyIgeDI9IjU1MSIgeTE9IjIyNjUuNDM3NSIgeTI9IjIyNjUuNDM3NSIvPjxyZWN0IGZpbGw9IiNFMkUyRjAiIGhlaWdodD0iMjguOTg0NCIgcng9IjIuNSIgcnk9IjIuNSIgc3R5bGU9InN0cm9rZTojMTgxODE4O3N0cm9rZS13aWR0aDowLjU7IiB3aWR0aD0iODQiIHg9IjU4MCIgeT0iNTAiLz48dGV4dCBmaWxsPSIjMDAwMDAwIiBmb250LWZhbWlseT0ic2Fucy1zZXJpZiIgZm9udC1zaXplPSIxNCIgbGVuZ3RoQWRqdXN0PSJzcGFjaW5nIiB0ZXh0TGVuZ3RoPSI3MCIgeD0iNTg3IiB5PSI3MC4yMzQ0Ij5SZXN0YXVyYW50PC90ZXh0PjxyZWN0IGZpbGw9IiNFMkUyRjAiIGhlaWdodD0iMjguOTg0NCIgcng9IjIuNSIgcnk9IjIuNSIgc3R5bGU9InN0cm9rZTojMTgxODE4O3N0cm9rZS13aWR0aDowLjU7IiB3aWR0aD0iODQiIHg9IjU4MCIgeT0iMjIyMC40NTMxIi8+PHRleHQgZmlsbD0iIzAwMDAwMCIgZm9udC1mYW1pbHk9InNhbnMtc2VyaWYiIGZvbnQtc2l6ZT0iMTQiIGxlbmd0aEFkanVzdD0ic3BhY2luZyIgdGV4dExlbmd0aD0iNzAiIHg9IjU4NyIgeT0iMjI0MC42ODc1Ij5SZXN0YXVyYW50PC90ZXh0Pjxwb2x5Z29uIGZpbGw9IiMxODE4MTgiIHBvaW50cz0iMzAyLDEwNS44OTg0LDMxMiwxMDkuODk4NCwzMDIsMTEzLjg5ODQsMzA2LDEwOS44OTg0IiBzdHlsZT0ic3Ryb2tlOiMxODE4MTg7c3Ryb2tlLXdpZHRoOjEuMDsiLz48bGluZSBzdHlsZT0ic3Ryb2tlOiMxODE4MTg7c3Ryb2tlLXdpZHRoOjEuMDsiIHgxPSIyMiIgeDI9IjMwOCIgeTE9IjEwOS44OTg0IiB5Mj0iMTA5Ljg5ODQiLz48dGV4dCBmaWxsPSIjMDAwMDAwIiBmb250LWZhbWlseT0ic2Fucy1zZXJpZiIgZm9udC1zaXplPSIxMyIgbGVuZ3RoQWRqdXN0PSJzcGFjaW5nIiB0ZXh0TGVuZ3RoPSIxMTAiIHg9IjI5IiB5PSIxMDYuMjczNCI+UE9TVCAvYXBpL29yZGVyczwvdGV4dD48cG9seWdvbiBmaWxsPSIjMTgxODE4IiBwb2ludHM9IjUyNywxMzMuODEyNSw1MzcsMTM3LjgxMjUsNTI3LDE0MS44MTI1LDUzMSwxMzcuODEyNSIgc3R5bGU9InN0cm9rZTojMTgxODE4O3N0cm9rZS13aWR0aDoxLjA7Ii8+PGxpbmUgc3R5bGU9InN0cm9rZTojMTgxODE4O3N0cm9rZS13aWR0aDoxLjA7IiB4MT0iMzE0IiB4Mj0iNTMzIiB5MT0iMTM3LjgxMjUiIHkyPSIxMzcuODEyNSIvPjx0ZXh0IGZpbGw9IiMwMDAwMDAiIGZvbnQtZmFtaWx5PSJzYW5zLXNlcmlmIiBmb250LXNpemU9IjEzIiBsZW5ndGhBZGp1c3Q9InNwYWNpbmciIHRleHRMZW5ndGg9IjEwMSIgeD0iMzIxIiB5PSIxMzQuMTg3NSI+VmFsaWRhdGUgQmFza2V0PC90ZXh0Pjxwb2x5Z29uIGZpbGw9IiMxODE4MTgiIHBvaW50cz0iMzI1LDE2MS43MjY2LDMxNSwxNjUuNzI2NiwzMjUsMTY5LjcyNjYsMzIxLDE2NS43MjY2IiBzdHlsZT0ic3Ryb2tlOiMxODE4MTg7c3Ryb2tlLXdpZHRoOjEuMDsiLz48bGluZSBzdHlsZT0ic3Ryb2tlOiMxODE4MTg7c3Ryb2tlLXdpZHRoOjEuMDsiIHgxPSIzMTkiIHgyPSI1MzgiIHkxPSIxNjUuNzI2NiIgeTI9IjE2NS43MjY2Ii8+PHRleHQgZmlsbD0iIzAwMDAwMCIgZm9udC1mYW1pbHk9InNhbnMtc2VyaWYiIGZvbnQtc2l6ZT0iMTMiIGxlbmd0aEFkanVzdD0ic3BhY2luZyIgdGV4dExlbmd0aD0iMTIyIiB4PSIzMzEiIHk9IjE2Mi4xMDE2Ij5SZXR1cm4gQmFza2V0IEluZm88L3RleHQ+PHBvbHlnb24gZmlsbD0iIzE4MTgxOCIgcG9pbnRzPSI1MjcsMTg5LjY0MDYsNTM3LDE5My42NDA2LDUyNywxOTcuNjQwNiw1MzEsMTkzLjY0MDYiIHN0eWxlPSJzdHJva2U6IzE4MTgxODtzdHJva2Utd2lkdGg6MS4wOyIvPjxsaW5lIHN0eWxlPSJzdHJva2U6IzE4MTgxODtzdHJva2Utd2lkdGg6MS4wOyIgeDE9IjMxNCIgeDI9IjUzMyIgeTE9IjE5My42NDA2IiB5Mj0iMTkzLjY0MDYiLz48dGV4dCBmaWxsPSIjMDAwMDAwIiBmb250LWZhbWlseT0ic2Fucy1zZXJpZiIgZm9udC1zaXplPSIxMyIgbGVuZ3RoQWRqdXN0PSJzcGFjaW5nIiB0ZXh0TGVuZ3RoPSIxMzIiIHg9IjMyMSIgeT0iMTkwLjAxNTYiPkNyZWF0ZSBPcmRlciBSZWNvcmQ8L3RleHQ+PHBvbHlnb24gZmlsbD0iIzE4MTgxOCIgcG9pbnRzPSIzMjUsMjE3LjU1NDcsMzE1LDIyMS41NTQ3LDMyNSwyMjUuNTU0NywzMjEsMjIxLjU1NDciIHN0eWxlPSJzdHJva2U6IzE4MTgxODtzdHJva2Utd2lkdGg6MS4wOyIvPjxsaW5lIHN0eWxlPSJzdHJva2U6IzE4MTgxODtzdHJva2Utd2lkdGg6MS4wOyIgeDE9IjMxOSIgeDI9IjUzOCIgeTE9IjIyMS41NTQ3IiB5Mj0iMjIxLjU1NDciLz48dGV4dCBmaWxsPSIjMDAwMDAwIiBmb250LWZhbWlseT0ic2Fucy1zZXJpZiIgZm9udC1zaXplPSIxMyIgbGVuZ3RoQWRqdXN0PSJzcGFjaW5nIiB0ZXh0TGVuZ3RoPSIxMzYiIHg9IjMzMSIgeT0iMjE3LjkyOTciPlJldHVybiBPcmRlciBEZXRhaWxzPC90ZXh0Pjxwb2x5Z29uIGZpbGw9IiMxODE4MTgiIHBvaW50cz0iMzMsMjQ1LjQ2ODgsMjMsMjQ5LjQ2ODgsMzMsMjUzLjQ2ODgsMjksMjQ5LjQ2ODgiIHN0eWxlPSJzdHJva2U6IzE4MTgxODtzdHJva2Utd2lkdGg6MS4wOyIvPjxsaW5lIHN0eWxlPSJzdHJva2U6IzE4MTgxODtzdHJva2Utd2lkdGg6MS4wOyIgeDE9IjI3IiB4Mj0iMzEzIiB5MT0iMjQ5LjQ2ODgiIHkyPSIyNDkuNDY4OCIvPjx0ZXh0IGZpbGw9IiMwMDAwMDAiIGZvbnQtZmFtaWx5PSJzYW5zLXNlcmlmIiBmb250LXNpemU9IjEzIiBsZW5ndGhBZGp1c3Q9InNwYWNpbmciIHRleHRMZW5ndGg9IjkwIiB4PSIzOSIgeT0iMjQ1Ljg0MzgiPk9yZGVyIENyZWF0ZWQ8L3RleHQ+PHBvbHlnb24gZmlsbD0iIzE4MTgxOCIgcG9pbnRzPSIzMDIsMjczLjM4MjgsMzEyLDI3Ny4zODI4LDMwMiwyODEuMzgyOCwzMDYsMjc3LjM4MjgiIHN0eWxlPSJzdHJva2U6IzE4MTgxODtzdHJva2Utd2lkdGg6MS4wOyIvPjxsaW5lIHN0eWxlPSJzdHJva2U6IzE4MTgxODtzdHJva2Utd2lkdGg6MS4wOyIgeDE9IjIyIiB4Mj0iMzA4IiB5MT0iMjc3LjM4MjgiIHkyPSIyNzcuMzgyOCIvPjx0ZXh0IGZpbGw9IiMwMDAwMDAiIGZvbnQtZmFtaWx5PSJzYW5zLXNlcmlmIiBmb250LXNpemU9IjEzIiBsZW5ndGhBZGp1c3Q9InNwYWNpbmciIHRleHRMZW5ndGg9IjEzNyIgeD0iMjkiIHk9IjI3My43NTc4Ij5QT1NUIC91c2Vycy9yZWdpc3RlcjwvdGV4dD48cG9seWdvbiBmaWxsPSIjMTgxODE4IiBwb2ludHM9IjUyNywzMDEuMjk2OSw1MzcsMzA1LjI5NjksNTI3LDMwOS4yOTY5LDUzMSwzMDUuMjk2OSIgc3R5bGU9InN0cm9rZTojMTgxODE4O3N0cm9rZS13aWR0aDoxLjA7Ii8+PGxpbmUgc3R5bGU9InN0cm9rZTojMTgxODE4O3N0cm9rZS13aWR0aDoxLjA7IiB4MT0iMzE0IiB4Mj0iNTMzIiB5MT0iMzA1LjI5NjkiIHkyPSIzMDUuMjk2OSIvPjx0ZXh0IGZpbGw9IiMwMDAwMDAiIGZvbnQtZmFtaWx5PSJzYW5zLXNlcmlmIiBmb250LXNpemU9IjEzIiBsZW5ndGhBZGp1c3Q9InNwYWNpbmciIHRleHRMZW5ndGg9IjEyMiIgeD0iMzIxIiB5PSIzMDEuNjcxOSI+VmFsaWRhdGUgVXNlciBEYXRhPC90ZXh0Pjxwb2x5Z29uIGZpbGw9IiMxODE4MTgiIHBvaW50cz0iMzI1LDMyOS4yMTA5LDMxNSwzMzMuMjEwOSwzMjUsMzM3LjIxMDksMzIxLDMzMy4yMTA5IiBzdHlsZT0ic3Ryb2tlOiMxODE4MTg7c3Ryb2tlLXdpZHRoOjEuMDsiLz48bGluZSBzdHlsZT0ic3Ryb2tlOiMxODE4MTg7c3Ryb2tlLXdpZHRoOjEuMDsiIHgxPSIzMTkiIHgyPSI1MzgiIHkxPSIzMzMuMjEwOSIgeTI9IjMzMy4yMTA5Ii8+PHRleHQgZmlsbD0iIzAwMDAwMCIgZm9udC1mYW1pbHk9InNhbnMtc2VyaWYiIGZvbnQtc2l6ZT0iMTMiIGxlbmd0aEFkanVzdD0ic3BhY2luZyIgdGV4dExlbmd0aD0iOTYiIHg9IjMzMSIgeT0iMzI5LjU4NTkiPlJldHVybiBVc2VyIElEPC90ZXh0Pjxwb2x5Z29uIGZpbGw9IiMxODE4MTgiIHBvaW50cz0iMzMsMzU3LjEyNSwyMywzNjEuMTI1LDMzLDM2NS4xMjUsMjksMzYxLjEyNSIgc3R5bGU9InN0cm9rZTojMTgxODE4O3N0cm9rZS13aWR0aDoxLjA7Ii8+PGxpbmUgc3R5bGU9InN0cm9rZTojMTgxODE4O3N0cm9rZS13aWR0aDoxLjA7IiB4MT0iMjciIHgyPSIzMTMiIHkxPSIzNjEuMTI1IiB5Mj0iMzYxLjEyNSIvPjx0ZXh0IGZpbGw9IiMwMDAwMDAiIGZvbnQtZmFtaWx5PSJzYW5zLXNlcmlmIiBmb250LXNpemU9IjEzIiBsZW5ndGhBZGp1c3Q9InNwYWNpbmciIHRleHRMZW5ndGg9IjEwMyIgeD0iMzkiIHk9IjM1Ny41Ij5Vc2VyIFJlZ2lzdGVyZWQ8L3RleHQ+PHBvbHlnb24gZmlsbD0iIzE4MTgxOCIgcG9pbnRzPSIzMDIsMzg1LjAzOTEsMzEyLDM4OS4wMzkxLDMwMiwzOTMuMDM5MSwzMDYsMzg5LjAzOTEiIHN0eWxlPSJzdHJva2U6IzE4MTgxODtzdHJva2Utd2lkdGg6MS4wOyIvPjxsaW5lIHN0eWxlPSJzdHJva2U6IzE4MTgxODtzdHJva2Utd2lkdGg6MS4wOyIgeDE9IjIyIiB4Mj0iMzA4IiB5MT0iMzg5LjAzOTEiIHkyPSIzODkuMDM5MSIvPjx0ZXh0IGZpbGw9IiMwMDAwMDAiIGZvbnQtZmFtaWx5PSJzYW5zLXNlcmlmIiBmb250LXNpemU9IjEzIiBsZW5ndGhBZGp1c3Q9InNwYWNpbmciIHRleHRMZW5ndGg9IjExNiIgeD0iMjkiIHk9IjM4NS40MTQxIj5QT1NUIC91c2Vycy9sb2dpbjwvdGV4dD48cG9seWdvbiBmaWxsPSIjMTgxODE4IiBwb2ludHM9IjUyNyw0MTIuOTUzMSw1MzcsNDE2Ljk1MzEsNTI3LDQyMC45NTMxLDUzMSw0MTYuOTUzMSIgc3R5bGU9InN0cm9rZTojMTgxODE4O3N0cm9rZS13aWR0aDoxLjA7Ii8+PGxpbmUgc3R5bGU9InN0cm9rZTojMTgxODE4O3N0cm9rZS13aWR0aDoxLjA7IiB4MT0iMzE0IiB4Mj0iNTMzIiB5MT0iNDE2Ljk1MzEiIHkyPSI0MTYuOTUzMSIvPjx0ZXh0IGZpbGw9IiMwMDAwMDAiIGZvbnQtZmFtaWx5PSJzYW5zLXNlcmlmIiBmb250LXNpemU9IjEzIiBsZW5ndGhBZGp1c3Q9InNwYWNpbmciIHRleHRMZW5ndGg9IjE3NSIgeD0iMzIxIiB5PSI0MTMuMzI4MSI+VmFsaWRhdGUgTG9naW4gQ3JlZGVudGlhbHM8L3RleHQ+PHBvbHlnb24gZmlsbD0iIzE4MTgxOCIgcG9pbnRzPSIzMjUsNDQwLjg2NzIsMzE1LDQ0NC44NjcyLDMyNSw0NDguODY3MiwzMjEsNDQ0Ljg2NzIiIHN0eWxlPSJzdHJva2U6IzE4MTgxODtzdHJva2Utd2lkdGg6MS4wOyIvPjxsaW5lIHN0eWxlPSJzdHJva2U6IzE4MTgxODtzdHJva2Utd2lkdGg6MS4wOyIgeDE9IjMxOSIgeDI9IjUzOCIgeTE9IjQ0NC44NjcyIiB5Mj0iNDQ0Ljg2NzIiLz48dGV4dCBmaWxsPSIjMDAwMDAwIiBmb250LWZhbWlseT0ic2Fucy1zZXJpZiIgZm9udC1zaXplPSIxMyIgbGVuZ3RoQWRqdXN0PSJzcGFjaW5nIiB0ZXh0TGVuZ3RoPSIxMjkiIHg9IjMzMSIgeT0iNDQxLjI0MjIiPlJldHVybiBVc2VyIERldGFpbHM8L3RleHQ+PHBvbHlnb24gZmlsbD0iIzE4MTgxOCIgcG9pbnRzPSIzMyw0NjguNzgxMywyMyw0NzIuNzgxMywzMyw0NzYuNzgxMywyOSw0NzIuNzgxMyIgc3R5bGU9InN0cm9rZTojMTgxODE4O3N0cm9rZS13aWR0aDoxLjA7Ii8+PGxpbmUgc3R5bGU9InN0cm9rZTojMTgxODE4O3N0cm9rZS13aWR0aDoxLjA7IiB4MT0iMjciIHgyPSIzMTMiIHkxPSI0NzIuNzgxMyIgeTI9IjQ3Mi43ODEzIi8+PHRleHQgZmlsbD0iIzAwMDAwMCIgZm9udC1mYW1pbHk9InNhbnMtc2VyaWYiIGZvbnQtc2l6ZT0iMTMiIGxlbmd0aEFkanVzdD0ic3BhY2luZyIgdGV4dExlbmd0aD0iOTciIHg9IjM5IiB5PSI0NjkuMTU2MyI+VXNlciBMb2dnZWQgSW48L3RleHQ+PHBvbHlnb24gZmlsbD0iIzE4MTgxOCIgcG9pbnRzPSIzMDIsNDk2LjY5NTMsMzEyLDUwMC42OTUzLDMwMiw1MDQuNjk1MywzMDYsNTAwLjY5NTMiIHN0eWxlPSJzdHJva2U6IzE4MTgxODtzdHJva2Utd2lkdGg6MS4wOyIvPjxsaW5lIHN0eWxlPSJzdHJva2U6IzE4MTgxODtzdHJva2Utd2lkdGg6MS4wOyIgeDE9IjIyIiB4Mj0iMzA4IiB5MT0iNTAwLjY5NTMiIHkyPSI1MDAuNjk1MyIvPjx0ZXh0IGZpbGw9IiMwMDAwMDAiIGZvbnQtZmFtaWx5PSJzYW5zLXNlcmlmIiBmb250LXNpemU9IjEzIiBsZW5ndGhBZGp1c3Q9InNwYWNpbmciIHRleHRMZW5ndGg9IjEzNiIgeD0iMjkiIHk9IjQ5Ny4wNzAzIj5QVVQgL3VzZXJzL3t1c2VyX2lkfTwvdGV4dD48cG9seWdvbiBmaWxsPSIjMTgxODE4IiBwb2ludHM9IjUyNyw1MjQuNjA5NCw1MzcsNTI4LjYwOTQsNTI3LDUzMi42MDk0LDUzMSw1MjguNjA5NCIgc3R5bGU9InN0cm9rZTojMTgxODE4O3N0cm9rZS13aWR0aDoxLjA7Ii8+PGxpbmUgc3R5bGU9InN0cm9rZTojMTgxODE4O3N0cm9rZS13aWR0aDoxLjA7IiB4MT0iMzE0IiB4Mj0iNTMzIiB5MT0iNTI4LjYwOTQiIHkyPSI1MjguNjA5NCIvPjx0ZXh0IGZpbGw9IiMwMDAwMDAiIGZvbnQtZmFtaWx5PSJzYW5zLXNlcmlmIiBmb250LXNpemU9IjEzIiBsZW5ndGhBZGp1c3Q9InNwYWNpbmciIHRleHRMZW5ndGg9IjEyOSIgeD0iMzIxIiB5PSI1MjQuOTg0NCI+VXBkYXRlIFVzZXIgUHJvZmlsZTwvdGV4dD48cG9seWdvbiBmaWxsPSIjMTgxODE4IiBwb2ludHM9IjMyNSw1NTIuNTIzNCwzMTUsNTU2LjUyMzQsMzI1LDU2MC41MjM0LDMyMSw1NTYuNTIzNCIgc3R5bGU9InN0cm9rZTojMTgxODE4O3N0cm9rZS13aWR0aDoxLjA7Ii8+PGxpbmUgc3R5bGU9InN0cm9rZTojMTgxODE4O3N0cm9rZS13aWR0aDoxLjA7IiB4MT0iMzE5IiB4Mj0iNTM4IiB5MT0iNTU2LjUyMzQiIHkyPSI1NTYuNTIzNCIvPjx0ZXh0IGZpbGw9IiMwMDAwMDAiIGZvbnQtZmFtaWx5PSJzYW5zLXNlcmlmIiBmb250LXNpemU9IjEzIiBsZW5ndGhBZGp1c3Q9InNwYWNpbmciIHRleHRMZW5ndGg9IjE4NCIgeD0iMzMxIiB5PSI1NTIuODk4NCI+UmV0dXJuIFVwZGF0ZWQgVXNlciBEZXRhaWxzPC90ZXh0Pjxwb2x5Z29uIGZpbGw9IiMxODE4MTgiIHBvaW50cz0iMzMsNTgwLjQzNzUsMjMsNTg0LjQzNzUsMzMsNTg4LjQzNzUsMjksNTg0LjQzNzUiIHN0eWxlPSJzdHJva2U6IzE4MTgxODtzdHJva2Utd2lkdGg6MS4wOyIvPjxsaW5lIHN0eWxlPSJzdHJva2U6IzE4MTgxODtzdHJva2Utd2lkdGg6MS4wOyIgeDE9IjI3IiB4Mj0iMzEzIiB5MT0iNTg0LjQzNzUiIHkyPSI1ODQuNDM3NSIvPjx0ZXh0IGZpbGw9IiMwMDAwMDAiIGZvbnQtZmFtaWx5PSJzYW5zLXNlcmlmIiBmb250LXNpemU9IjEzIiBsZW5ndGhBZGp1c3Q9InNwYWNpbmciIHRleHRMZW5ndGg9IjEwMSIgeD0iMzkiIHk9IjU4MC44MTI1Ij5Qcm9maWxlIFVwZGF0ZWQ8L3RleHQ+PHBvbHlnb24gZmlsbD0iIzE4MTgxOCIgcG9pbnRzPSIzMDIsNjA4LjM1MTYsMzEyLDYxMi4zNTE2LDMwMiw2MTYuMzUxNiwzMDYsNjEyLjM1MTYiIHN0eWxlPSJzdHJva2U6IzE4MTgxODtzdHJva2Utd2lkdGg6MS4wOyIvPjxsaW5lIHN0eWxlPSJzdHJva2U6IzE4MTgxODtzdHJva2Utd2lkdGg6MS4wOyIgeDE9IjIyIiB4Mj0iMzA4IiB5MT0iNjEyLjM1MTYiIHkyPSI2MTIuMzUxNiIvPjx0ZXh0IGZpbGw9IiMwMDAwMDAiIGZvbnQtZmFtaWx5PSJzYW5zLXNlcmlmIiBmb250LXNpemU9IjEzIiBsZW5ndGhBZGp1c3Q9InNwYWNpbmciIHRleHRMZW5ndGg9IjE4OCIgeD0iMjkiIHk9IjYwOC43MjY2Ij5QT1NUIC9iYXNrZXQve3VzZXJfaWR9L2l0ZW1zPC90ZXh0Pjxwb2x5Z29uIGZpbGw9IiMxODE4MTgiIHBvaW50cz0iNTI3LDYzNi4yNjU2LDUzNyw2NDAuMjY1Niw1MjcsNjQ0LjI2NTYsNTMxLDY0MC4yNjU2IiBzdHlsZT0ic3Ryb2tlOiMxODE4MTg7c3Ryb2tlLXdpZHRoOjEuMDsiLz48bGluZSBzdHlsZT0ic3Ryb2tlOiMxODE4MTg7c3Ryb2tlLXdpZHRoOjEuMDsiIHgxPSIzMTQiIHgyPSI1MzMiIHkxPSI2NDAuMjY1NiIgeTI9IjY0MC4yNjU2Ii8+PHRleHQgZmlsbD0iIzAwMDAwMCIgZm9udC1mYW1pbHk9InNhbnMtc2VyaWYiIGZvbnQtc2l6ZT0iMTMiIGxlbmd0aEFkanVzdD0ic3BhY2luZyIgdGV4dExlbmd0aD0iMTIxIiB4PSIzMjEiIHk9IjYzNi42NDA2Ij5BZGQgSXRlbSB0byBCYXNrZXQ8L3RleHQ+PHBvbHlnb24gZmlsbD0iIzE4MTgxOCIgcG9pbnRzPSIzMjUsNjY0LjE3OTcsMzE1LDY2OC4xNzk3LDMyNSw2NzIuMTc5NywzMjEsNjY4LjE3OTciIHN0eWxlPSJzdHJva2U6IzE4MTgxODtzdHJva2Utd2lkdGg6MS4wOyIvPjxsaW5lIHN0eWxlPSJzdHJva2U6IzE4MTgxODtzdHJva2Utd2lkdGg6MS4wOyIgeDE9IjMxOSIgeDI9IjUzOCIgeTE9IjY2OC4xNzk3IiB5Mj0iNjY4LjE3OTciLz48dGV4dCBmaWxsPSIjMDAwMDAwIiBmb250LWZhbWlseT0ic2Fucy1zZXJpZiIgZm9udC1zaXplPSIxMyIgbGVuZ3RoQWRqdXN0PSJzcGFjaW5nIiB0ZXh0TGVuZ3RoPSIxNDQiIHg9IjMzMSIgeT0iNjY0LjU1NDciPlJldHVybiBVcGRhdGVkIEJhc2tldDwvdGV4dD48cG9seWdvbiBmaWxsPSIjMTgxODE4IiBwb2ludHM9IjMzLDY5Mi4wOTM4LDIzLDY5Ni4wOTM4LDMzLDcwMC4wOTM4LDI5LDY5Ni4wOTM4IiBzdHlsZT0ic3Ryb2tlOiMxODE4MTg7c3Ryb2tlLXdpZHRoOjEuMDsiLz48bGluZSBzdHlsZT0ic3Ryb2tlOiMxODE4MTg7c3Ryb2tlLXdpZHRoOjEuMDsiIHgxPSIyNyIgeDI9IjMxMyIgeTE9IjY5Ni4wOTM4IiB5Mj0iNjk2LjA5MzgiLz48dGV4dCBmaWxsPSIjMDAwMDAwIiBmb250LWZhbWlseT0ic2Fucy1zZXJpZiIgZm9udC1zaXplPSIxMyIgbGVuZ3RoQWRqdXN0PSJzcGFjaW5nIiB0ZXh0TGVuZ3RoPSIxMzUiIHg9IjM5IiB5PSI2OTIuNDY4OCI+SXRlbSBBZGRlZCB0byBCYXNrZXQ8L3RleHQ+PHBvbHlnb24gZmlsbD0iIzE4MTgxOCIgcG9pbnRzPSIzMDIsNzIwLjAwNzgsMzEyLDcyNC4wMDc4LDMwMiw3MjguMDA3OCwzMDYsNzI0LjAwNzgiIHN0eWxlPSJzdHJva2U6IzE4MTgxODtzdHJva2Utd2lkdGg6MS4wOyIvPjxsaW5lIHN0eWxlPSJzdHJva2U6IzE4MTgxODtzdHJva2Utd2lkdGg6MS4wOyIgeDE9IjIyIiB4Mj0iMzA4IiB5MT0iNzI0LjAwNzgiIHkyPSI3MjQuMDA3OCIvPjx0ZXh0IGZpbGw9IiMwMDAwMDAiIGZvbnQtZmFtaWx5PSJzYW5zLXNlcmlmIiBmb250LXNpemU9IjEzIiBsZW5ndGhBZGp1c3Q9InNwYWNpbmciIHRleHRMZW5ndGg9IjI2OCIgeD0iMjkiIHk9IjcyMC4zODI4Ij5ERUxFVEUgL2Jhc2tldC97dXNlcl9pZH0vaXRlbXMve2Zvb2RfaWR9PC90ZXh0Pjxwb2x5Z29uIGZpbGw9IiMxODE4MTgiIHBvaW50cz0iNTI3LDc0Ny45MjE5LDUzNyw3NTEuOTIxOSw1MjcsNzU1LjkyMTksNTMxLDc1MS45MjE5IiBzdHlsZT0ic3Ryb2tlOiMxODE4MTg7c3Ryb2tlLXdpZHRoOjEuMDsiLz48bGluZSBzdHlsZT0ic3Ryb2tlOiMxODE4MTg7c3Ryb2tlLXdpZHRoOjEuMDsiIHgxPSIzMTQiIHgyPSI1MzMiIHkxPSI3NTEuOTIxOSIgeTI9Ijc1MS45MjE5Ii8+PHRleHQgZmlsbD0iIzAwMDAwMCIgZm9udC1mYW1pbHk9InNhbnMtc2VyaWYiIGZvbnQtc2l6ZT0iMTMiIGxlbmd0aEFkanVzdD0ic3BhY2luZyIgdGV4dExlbmd0aD0iMTU0IiB4PSIzMjEiIHk9Ijc0OC4yOTY5Ij5SZW1vdmUgSXRlbSBmcm9tIEJhc2tldDwvdGV4dD48cG9seWdvbiBmaWxsPSIjMTgxODE4IiBwb2ludHM9IjMyNSw3NzUuODM1OSwzMTUsNzc5LjgzNTksMzI1LDc4My44MzU5LDMyMSw3NzkuODM1OSIgc3R5bGU9InN0cm9rZTojMTgxODE4O3N0cm9rZS13aWR0aDoxLjA7Ii8+PGxpbmUgc3R5bGU9InN0cm9rZTojMTgxODE4O3N0cm9rZS13aWR0aDoxLjA7IiB4MT0iMzE5IiB4Mj0iNTM4IiB5MT0iNzc5LjgzNTkiIHkyPSI3NzkuODM1OSIvPjx0ZXh0IGZpbGw9IiMwMDAwMDAiIGZvbnQtZmFtaWx5PSJzYW5zLXNlcmlmIiBmb250LXNpemU9IjEzIiBsZW5ndGhBZGp1c3Q9InNwYWNpbmciIHRleHRMZW5ndGg9IjE0NCIgeD0iMzMxIiB5PSI3NzYuMjEwOSI+UmV0dXJuIFVwZGF0ZWQgQmFza2V0PC90ZXh0Pjxwb2x5Z29uIGZpbGw9IiMxODE4MTgiIHBvaW50cz0iMzMsODAzLjc1LDIzLDgwNy43NSwzMyw4MTEuNzUsMjksODA3Ljc1IiBzdHlsZT0ic3Ryb2tlOiMxODE4MTg7c3Ryb2tlLXdpZHRoOjEuMDsiLz48bGluZSBzdHlsZT0ic3Ryb2tlOiMxODE4MTg7c3Ryb2tlLXdpZHRoOjEuMDsiIHgxPSIyNyIgeDI9IjMxMyIgeTE9IjgwNy43NSIgeTI9IjgwNy43NSIvPjx0ZXh0IGZpbGw9IiMwMDAwMDAiIGZvbnQtZmFtaWx5PSJzYW5zLXNlcmlmIiBmb250LXNpemU9IjEzIiBsZW5ndGhBZGp1c3Q9InNwYWNpbmciIHRleHRMZW5ndGg9IjE2MSIgeD0iMzkiIHk9IjgwNC4xMjUiPkl0ZW0gUmVtb3ZlZCBmcm9tIEJhc2tldDwvdGV4dD48cG9seWdvbiBmaWxsPSIjMTgxODE4IiBwb2ludHM9IjMwMiw4MzEuNjY0MSwzMTIsODM1LjY2NDEsMzAyLDgzOS42NjQxLDMwNiw4MzUuNjY0MSIgc3R5bGU9InN0cm9rZTojMTgxODE4O3N0cm9rZS13aWR0aDoxLjA7Ii8+PGxpbmUgc3R5bGU9InN0cm9rZTojMTgxODE4O3N0cm9rZS13aWR0aDoxLjA7IiB4MT0iMjIiIHgyPSIzMDgiIHkxPSI4MzUuNjY0MSIgeTI9IjgzNS42NjQxIi8+PHRleHQgZmlsbD0iIzAwMDAwMCIgZm9udC1mYW1pbHk9InNhbnMtc2VyaWYiIGZvbnQtc2l6ZT0iMTMiIGxlbmd0aEFkanVzdD0ic3BhY2luZyIgdGV4dExlbmd0aD0iMjQ3IiB4PSIyOSIgeT0iODMyLjAzOTEiPlBVVCAvYmFza2V0L3t1c2VyX2lkfS9pdGVtcy97Zm9vZF9pZH08L3RleHQ+PHBvbHlnb24gZmlsbD0iIzE4MTgxOCIgcG9pbnRzPSI1MjcsODU5LjU3ODEsNTM3LDg2My41NzgxLDUyNyw4NjcuNTc4MSw1MzEsODYzLjU3ODEiIHN0eWxlPSJzdHJva2U6IzE4MTgxODtzdHJva2Utd2lkdGg6MS4wOyIvPjxsaW5lIHN0eWxlPSJzdHJva2U6IzE4MTgxODtzdHJva2Utd2lkdGg6MS4wOyIgeDE9IjMxNCIgeDI9IjUzMyIgeTE9Ijg2My41NzgxIiB5Mj0iODYzLjU3ODEiLz48dGV4dCBmaWxsPSIjMDAwMDAwIiBmb250LWZhbWlseT0ic2Fucy1zZXJpZiIgZm9udC1zaXplPSIxMyIgbGVuZ3RoQWRqdXN0PSJzcGFjaW5nIiB0ZXh0TGVuZ3RoPSIyMDEiIHg9IjMyMSIgeT0iODU5Ljk1MzEiPlVwZGF0ZSBJdGVtIFF1YW50aXR5IGluIEJhc2tldDwvdGV4dD48cG9seWdvbiBmaWxsPSIjMTgxODE4IiBwb2ludHM9IjMyNSw4ODcuNDkyMiwzMTUsODkxLjQ5MjIsMzI1LDg5NS40OTIyLDMyMSw4OTEuNDkyMiIgc3R5bGU9InN0cm9rZTojMTgxODE4O3N0cm9rZS13aWR0aDoxLjA7Ii8+PGxpbmUgc3R5bGU9InN0cm9rZTojMTgxODE4O3N0cm9rZS13aWR0aDoxLjA7IiB4MT0iMzE5IiB4Mj0iNTM4IiB5MT0iODkxLjQ5MjIiIHkyPSI4OTEuNDkyMiIvPjx0ZXh0IGZpbGw9IiMwMDAwMDAiIGZvbnQtZmFtaWx5PSJzYW5zLXNlcmlmIiBmb250LXNpemU9IjEzIiBsZW5ndGhBZGp1c3Q9InNwYWNpbmciIHRleHRMZW5ndGg9IjE0NCIgeD0iMzMxIiB5PSI4ODcuODY3MiI+UmV0dXJuIFVwZGF0ZWQgQmFza2V0PC90ZXh0Pjxwb2x5Z29uIGZpbGw9IiMxODE4MTgiIHBvaW50cz0iMzMsOTE1LjQwNjMsMjMsOTE5LjQwNjMsMzMsOTIzLjQwNjMsMjksOTE5LjQwNjMiIHN0eWxlPSJzdHJva2U6IzE4MTgxODtzdHJva2Utd2lkdGg6MS4wOyIvPjxsaW5lIHN0eWxlPSJzdHJva2U6IzE4MTgxODtzdHJva2Utd2lkdGg6MS4wOyIgeDE9IjI3IiB4Mj0iMzEzIiB5MT0iOTE5LjQwNjMiIHkyPSI5MTkuNDA2MyIvPjx0ZXh0IGZpbGw9IiMwMDAwMDAiIGZvbnQtZmFtaWx5PSJzYW5zLXNlcmlmIiBmb250LXNpemU9IjEzIiBsZW5ndGhBZGp1c3Q9InNwYWNpbmciIHRleHRMZW5ndGg9IjE0MCIgeD0iMzkiIHk9IjkxNS43ODEzIj5JdGVtIFF1YW50aXR5IFVwZGF0ZWQ8L3RleHQ+PHBvbHlnb24gZmlsbD0iIzE4MTgxOCIgcG9pbnRzPSIzMDIsOTQzLjMyMDMsMzEyLDk0Ny4zMjAzLDMwMiw5NTEuMzIwMywzMDYsOTQ3LjMyMDMiIHN0eWxlPSJzdHJva2U6IzE4MTgxODtzdHJva2Utd2lkdGg6MS4wOyIvPjxsaW5lIHN0eWxlPSJzdHJva2U6IzE4MTgxODtzdHJva2Utd2lkdGg6MS4wOyIgeDE9IjIyIiB4Mj0iMzA4IiB5MT0iOTQ3LjMyMDMiIHkyPSI5NDcuMzIwMyIvPjx0ZXh0IGZpbGw9IiMwMDAwMDAiIGZvbnQtZmFtaWx5PSJzYW5zLXNlcmlmIiBmb250LXNpemU9IjEzIiBsZW5ndGhBZGp1c3Q9InNwYWNpbmciIHRleHRMZW5ndGg9IjIxMSIgeD0iMjkiIHk9Ijk0My42OTUzIj5QT1NUIC9iYXNrZXQve3VzZXJfaWR9L2NoZWNrb3V0PC90ZXh0Pjxwb2x5Z29uIGZpbGw9IiMxODE4MTgiIHBvaW50cz0iNTI3LDk3MS4yMzQ0LDUzNyw5NzUuMjM0NCw1MjcsOTc5LjIzNDQsNTMxLDk3NS4yMzQ0IiBzdHlsZT0ic3Ryb2tlOiMxODE4MTg7c3Ryb2tlLXdpZHRoOjEuMDsiLz48bGluZSBzdHlsZT0ic3Ryb2tlOiMxODE4MTg7c3Ryb2tlLXdpZHRoOjEuMDsiIHgxPSIzMTQiIHgyPSI1MzMiIHkxPSI5NzUuMjM0NCIgeTI9Ijk3NS4yMzQ0Ii8+PHRleHQgZmlsbD0iIzAwMDAwMCIgZm9udC1mYW1pbHk9InNhbnMtc2VyaWYiIGZvbnQtc2l6ZT0iMTMiIGxlbmd0aEFkanVzdD0ic3BhY2luZyIgdGV4dExlbmd0aD0iMTkwIiB4PSIzMjEiIHk9Ijk3MS42MDk0Ij5WYWxpZGF0ZSBCYXNrZXQgZm9yIENoZWNrb3V0PC90ZXh0Pjxwb2x5Z29uIGZpbGw9IiMxODE4MTgiIHBvaW50cz0iMzI1LDk5OS4xNDg0LDMxNSwxMDAzLjE0ODQsMzI1LDEwMDcuMTQ4NCwzMjEsMTAwMy4xNDg0IiBzdHlsZT0ic3Ryb2tlOiMxODE4MTg7c3Ryb2tlLXdpZHRoOjEuMDsiLz48bGluZSBzdHlsZT0ic3Ryb2tlOiMxODE4MTg7c3Ryb2tlLXdpZHRoOjEuMDsiIHgxPSIzMTkiIHgyPSI1MzgiIHkxPSIxMDAzLjE0ODQiIHkyPSIxMDAzLjE0ODQiLz48dGV4dCBmaWxsPSIjMDAwMDAwIiBmb250LWZhbWlseT0ic2Fucy1zZXJpZiIgZm9udC1zaXplPSIxMyIgbGVuZ3RoQWRqdXN0PSJzcGFjaW5nIiB0ZXh0TGVuZ3RoPSIxMjIiIHg9IjMzMSIgeT0iOTk5LjUyMzQiPlJldHVybiBCYXNrZXQgSW5mbzwvdGV4dD48cG9seWdvbiBmaWxsPSIjMTgxODE4IiBwb2ludHM9IjUyNywxMDI3LjA2MjUsNTM3LDEwMzEuMDYyNSw1MjcsMTAzNS4wNjI1LDUzMSwxMDMxLjA2MjUiIHN0eWxlPSJzdHJva2U6IzE4MTgxODtzdHJva2Utd2lkdGg6MS4wOyIvPjxsaW5lIHN0eWxlPSJzdHJva2U6IzE4MTgxODtzdHJva2Utd2lkdGg6MS4wOyIgeDE9IjMxNCIgeDI9IjUzMyIgeTE9IjEwMzEuMDYyNSIgeTI9IjEwMzEuMDYyNSIvPjx0ZXh0IGZpbGw9IiMwMDAwMDAiIGZvbnQtZmFtaWx5PSJzYW5zLXNlcmlmIiBmb250LXNpemU9IjEzIiBsZW5ndGhBZGp1c3Q9InNwYWNpbmciIHRleHRMZW5ndGg9IjE0NCIgeD0iMzIxIiB5PSIxMDI3LjQzNzUiPkNyZWF0ZSBQYXltZW50IFJlY29yZDwvdGV4dD48cG9seWdvbiBmaWxsPSIjMTgxODE4IiBwb2ludHM9IjMyNSwxMDU0Ljk3NjYsMzE1LDEwNTguOTc2NiwzMjUsMTA2Mi45NzY2LDMyMSwxMDU4Ljk3NjYiIHN0eWxlPSJzdHJva2U6IzE4MTgxODtzdHJva2Utd2lkdGg6MS4wOyIvPjxsaW5lIHN0eWxlPSJzdHJva2U6IzE4MTgxODtzdHJva2Utd2lkdGg6MS4wOyIgeDE9IjMxOSIgeDI9IjUzOCIgeTE9IjEwNTguOTc2NiIgeTI9IjEwNTguOTc2NiIvPjx0ZXh0IGZpbGw9IiMwMDAwMDAiIGZvbnQtZmFtaWx5PSJzYW5zLXNlcmlmIiBmb250LXNpemU9IjEzIiBsZW5ndGhBZGp1c3Q9InNwYWNpbmciIHRleHRMZW5ndGg9IjE0OCIgeD0iMzMxIiB5PSIxMDU1LjM1MTYiPlJldHVybiBQYXltZW50IERldGFpbHM8L3RleHQ+PHBvbHlnb24gZmlsbD0iIzE4MTgxOCIgcG9pbnRzPSIzMywxMDgyLjg5MDYsMjMsMTA4Ni44OTA2LDMzLDEwOTAuODkwNiwyOSwxMDg2Ljg5MDYiIHN0eWxlPSJzdHJva2U6IzE4MTgxODtzdHJva2Utd2lkdGg6MS4wOyIvPjxsaW5lIHN0eWxlPSJzdHJva2U6IzE4MTgxODtzdHJva2Utd2lkdGg6MS4wOyIgeDE9IjI3IiB4Mj0iMzEzIiB5MT0iMTA4Ni44OTA2IiB5Mj0iMTA4Ni44OTA2Ii8+PHRleHQgZmlsbD0iIzAwMDAwMCIgZm9udC1mYW1pbHk9InNhbnMtc2VyaWYiIGZvbnQtc2l6ZT0iMTMiIGxlbmd0aEFkanVzdD0ic3BhY2luZyIgdGV4dExlbmd0aD0iMjUxIiB4PSIzOSIgeT0iMTA4My4yNjU2Ij5DaGVja291dCBDb21wbGV0ZSwgUHJvY2VlZCB0byBQYXltZW50PC90ZXh0Pjxwb2x5Z29uIGZpbGw9IiMxODE4MTgiIHBvaW50cz0iMzAyLDExMTAuODA0NywzMTIsMTExNC44MDQ3LDMwMiwxMTE4LjgwNDcsMzA2LDExMTQuODA0NyIgc3R5bGU9InN0cm9rZTojMTgxODE4O3N0cm9rZS13aWR0aDoxLjA7Ii8+PGxpbmUgc3R5bGU9InN0cm9rZTojMTgxODE4O3N0cm9rZS13aWR0aDoxLjA7IiB4MT0iMjIiIHgyPSIzMDgiIHkxPSIxMTE0LjgwNDciIHkyPSIxMTE0LjgwNDciLz48dGV4dCBmaWxsPSIjMDAwMDAwIiBmb250LWZhbWlseT0ic2Fucy1zZXJpZiIgZm9udC1zaXplPSIxMyIgbGVuZ3RoQWRqdXN0PSJzcGFjaW5nIiB0ZXh0TGVuZ3RoPSI5NSIgeD0iMjkiIHk9IjExMTEuMTc5NyI+UE9TVCAvcGF5bWVudHM8L3RleHQ+PHBvbHlnb24gZmlsbD0iIzE4MTgxOCIgcG9pbnRzPSI1MjcsMTEzOC43MTg4LDUzNywxMTQyLjcxODgsNTI3LDExNDYuNzE4OCw1MzEsMTE0Mi43MTg4IiBzdHlsZT0ic3Ryb2tlOiMxODE4MTg7c3Ryb2tlLXdpZHRoOjEuMDsiLz48bGluZSBzdHlsZT0ic3Ryb2tlOiMxODE4MTg7c3Ryb2tlLXdpZHRoOjEuMDsiIHgxPSIzMTQiIHgyPSI1MzMiIHkxPSIxMTQyLjcxODgiIHkyPSIxMTQyLjcxODgiLz48dGV4dCBmaWxsPSIjMDAwMDAwIiBmb250LWZhbWlseT0ic2Fucy1zZXJpZiIgZm9udC1zaXplPSIxMyIgbGVuZ3RoQWRqdXN0PSJzcGFjaW5nIiB0ZXh0TGVuZ3RoPSIxNDQiIHg9IjMyMSIgeT0iMTEzOS4wOTM4Ij5DcmVhdGUgUGF5bWVudCBSZWNvcmQ8L3RleHQ+PHBvbHlnb24gZmlsbD0iIzE4MTgxOCIgcG9pbnRzPSIzMjUsMTE2Ni42MzI4LDMxNSwxMTcwLjYzMjgsMzI1LDExNzQuNjMyOCwzMjEsMTE3MC42MzI4IiBzdHlsZT0ic3Ryb2tlOiMxODE4MTg7c3Ryb2tlLXdpZHRoOjEuMDsiLz48bGluZSBzdHlsZT0ic3Ryb2tlOiMxODE4MTg7c3Ryb2tlLXdpZHRoOjEuMDsiIHgxPSIzMTkiIHgyPSI1MzgiIHkxPSIxMTcwLjYzMjgiIHkyPSIxMTcwLjYzMjgiLz48dGV4dCBmaWxsPSIjMDAwMDAwIiBmb250LWZhbWlseT0ic2Fucy1zZXJpZiIgZm9udC1zaXplPSIxMyIgbGVuZ3RoQWRqdXN0PSJzcGFjaW5nIiB0ZXh0TGVuZ3RoPSIxNDgiIHg9IjMzMSIgeT0iMTE2Ny4wMDc4Ij5SZXR1cm4gUGF5bWVudCBEZXRhaWxzPC90ZXh0Pjxwb2x5Z29uIGZpbGw9IiMxODE4MTgiIHBvaW50cz0iMzMsMTE5NC41NDY5LDIzLDExOTguNTQ2OSwzMywxMjAyLjU0NjksMjksMTE5OC41NDY5IiBzdHlsZT0ic3Ryb2tlOiMxODE4MTg7c3Ryb2tlLXdpZHRoOjEuMDsiLz48bGluZSBzdHlsZT0ic3Ryb2tlOiMxODE4MTg7c3Ryb2tlLXdpZHRoOjEuMDsiIHgxPSIyNyIgeDI9IjMxMyIgeTE9IjExOTguNTQ2OSIgeTI9IjExOTguNTQ2OSIvPjx0ZXh0IGZpbGw9IiMwMDAwMDAiIGZvbnQtZmFtaWx5PSJzYW5zLXNlcmlmIiBmb250LXNpemU9IjEzIiBsZW5ndGhBZGp1c3Q9InNwYWNpbmciIHRleHRMZW5ndGg9IjEwMiIgeD0iMzkiIHk9IjExOTQuOTIxOSI+UGF5bWVudCBDcmVhdGVkPC90ZXh0Pjxwb2x5Z29uIGZpbGw9IiMxODE4MTgiIHBvaW50cz0iMzAyLDEyMjIuNDYwOSwzMTIsMTIyNi40NjA5LDMwMiwxMjMwLjQ2MDksMzA2LDEyMjYuNDYwOSIgc3R5bGU9InN0cm9rZTojMTgxODE4O3N0cm9rZS13aWR0aDoxLjA7Ii8+PGxpbmUgc3R5bGU9InN0cm9rZTojMTgxODE4O3N0cm9rZS13aWR0aDoxLjA7IiB4MT0iMjIiIHgyPSIzMDgiIHkxPSIxMjI2LjQ2MDkiIHkyPSIxMjI2LjQ2MDkiLz48dGV4dCBmaWxsPSIjMDAwMDAwIiBmb250LWZhbWlseT0ic2Fucy1zZXJpZiIgZm9udC1zaXplPSIxMyIgbGVuZ3RoQWRqdXN0PSJzcGFjaW5nIiB0ZXh0TGVuZ3RoPSIxNTAiIHg9IjI5IiB5PSIxMjIyLjgzNTkiPkdFVCAvb3JkZXJzL3tvcmRlcl9pZH08L3RleHQ+PHBvbHlnb24gZmlsbD0iIzE4MTgxOCIgcG9pbnRzPSI1MjcsMTI1MC4zNzUsNTM3LDEyNTQuMzc1LDUyNywxMjU4LjM3NSw1MzEsMTI1NC4zNzUiIHN0eWxlPSJzdHJva2U6IzE4MTgxODtzdHJva2Utd2lkdGg6MS4wOyIvPjxsaW5lIHN0eWxlPSJzdHJva2U6IzE4MTgxODtzdHJva2Utd2lkdGg6MS4wOyIgeDE9IjMxNCIgeDI9IjUzMyIgeTE9IjEyNTQuMzc1IiB5Mj0iMTI1NC4zNzUiLz48dGV4dCBmaWxsPSIjMDAwMDAwIiBmb250LWZhbWlseT0ic2Fucy1zZXJpZiIgZm9udC1zaXplPSIxMyIgbGVuZ3RoQWRqdXN0PSJzcGFjaW5nIiB0ZXh0TGVuZ3RoPSIxNDkiIHg9IjMyMSIgeT0iMTI1MC43NSI+UmV0cmlldmUgT3JkZXIgRGV0YWlsczwvdGV4dD48cG9seWdvbiBmaWxsPSIjMTgxODE4IiBwb2ludHM9IjMyNSwxMjc4LjI4OTEsMzE1LDEyODIuMjg5MSwzMjUsMTI4Ni4yODkxLDMyMSwxMjgyLjI4OTEiIHN0eWxlPSJzdHJva2U6IzE4MTgxODtzdHJva2Utd2lkdGg6MS4wOyIvPjxsaW5lIHN0eWxlPSJzdHJva2U6IzE4MTgxODtzdHJva2Utd2lkdGg6MS4wOyIgeDE9IjMxOSIgeDI9IjUzOCIgeTE9IjEyODIuMjg5MSIgeTI9IjEyODIuMjg5MSIvPjx0ZXh0IGZpbGw9IiMwMDAwMDAiIGZvbnQtZmFtaWx5PSJzYW5zLXNlcmlmIiBmb250LXNpemU9IjEzIiBsZW5ndGhBZGp1c3Q9InNwYWNpbmciIHRleHRMZW5ndGg9IjEzNiIgeD0iMzMxIiB5PSIxMjc4LjY2NDEiPlJldHVybiBPcmRlciBEZXRhaWxzPC90ZXh0Pjxwb2x5Z29uIGZpbGw9IiMxODE4MTgiIHBvaW50cz0iMzMsMTMwNi4yMDMxLDIzLDEzMTAuMjAzMSwzMywxMzE0LjIwMzEsMjksMTMxMC4yMDMxIiBzdHlsZT0ic3Ryb2tlOiMxODE4MTg7c3Ryb2tlLXdpZHRoOjEuMDsiLz48bGluZSBzdHlsZT0ic3Ryb2tlOiMxODE4MTg7c3Ryb2tlLXdpZHRoOjEuMDsiIHgxPSIyNyIgeDI9IjMxMyIgeTE9IjEzMTAuMjAzMSIgeTI9IjEzMTAuMjAzMSIvPjx0ZXh0IGZpbGw9IiMwMDAwMDAiIGZvbnQtZmFtaWx5PSJzYW5zLXNlcmlmIiBmb250LXNpemU9IjEzIiBsZW5ndGhBZGp1c3Q9InNwYWNpbmciIHRleHRMZW5ndGg9IjE2MiIgeD0iMzkiIHk9IjEzMDYuNTc4MSI+UmV0dXJuIE9yZGVyIEluZm9ybWF0aW9uPC90ZXh0Pjxwb2x5Z29uIGZpbGw9IiMxODE4MTgiIHBvaW50cz0iMzAyLDEzMzQuMTE3MiwzMTIsMTMzOC4xMTcyLDMwMiwxMzQyLjExNzIsMzA2LDEzMzguMTE3MiIgc3R5bGU9InN0cm9rZTojMTgxODE4O3N0cm9rZS13aWR0aDoxLjA7Ii8+PGxpbmUgc3R5bGU9InN0cm9rZTojMTgxODE4O3N0cm9rZS13aWR0aDoxLjA7IiB4MT0iMjIiIHgyPSIzMDgiIHkxPSIxMzM4LjExNzIiIHkyPSIxMzM4LjExNzIiLz48dGV4dCBmaWxsPSIjMDAwMDAwIiBmb250LWZhbWlseT0ic2Fucy1zZXJpZiIgZm9udC1zaXplPSIxMyIgbGVuZ3RoQWRqdXN0PSJzcGFjaW5nIiB0ZXh0TGVuZ3RoPSIxMzQiIHg9IjI5IiB5PSIxMzM0LjQ5MjIiPkdFVCAvZm9vZHMve2Zvb2RfaWR9PC90ZXh0Pjxwb2x5Z29uIGZpbGw9IiMxODE4MTgiIHBvaW50cz0iNTI3LDEzNjIuMDMxMyw1MzcsMTM2Ni4wMzEzLDUyNywxMzcwLjAzMTMsNTMxLDEzNjYuMDMxMyIgc3R5bGU9InN0cm9rZTojMTgxODE4O3N0cm9rZS13aWR0aDoxLjA7Ii8+PGxpbmUgc3R5bGU9InN0cm9rZTojMTgxODE4O3N0cm9rZS13aWR0aDoxLjA7IiB4MT0iMzE0IiB4Mj0iNTMzIiB5MT0iMTM2Ni4wMzEzIiB5Mj0iMTM2Ni4wMzEzIi8+PHRleHQgZmlsbD0iIzAwMDAwMCIgZm9udC1mYW1pbHk9InNhbnMtc2VyaWYiIGZvbnQtc2l6ZT0iMTMiIGxlbmd0aEFkanVzdD0ic3BhY2luZyIgdGV4dExlbmd0aD0iMTQyIiB4PSIzMjEiIHk9IjEzNjIuNDA2MyI+UmV0cmlldmUgRm9vZCBEZXRhaWxzPC90ZXh0Pjxwb2x5Z29uIGZpbGw9IiMxODE4MTgiIHBvaW50cz0iMzI1LDEzODkuOTQ1MywzMTUsMTM5My45NDUzLDMyNSwxMzk3Ljk0NTMsMzIxLDEzOTMuOTQ1MyIgc3R5bGU9InN0cm9rZTojMTgxODE4O3N0cm9rZS13aWR0aDoxLjA7Ii8+PGxpbmUgc3R5bGU9InN0cm9rZTojMTgxODE4O3N0cm9rZS13aWR0aDoxLjA7IiB4MT0iMzE5IiB4Mj0iNTM4IiB5MT0iMTM5My45NDUzIiB5Mj0iMTM5My45NDUzIi8+PHRleHQgZmlsbD0iIzAwMDAwMCIgZm9udC1mYW1pbHk9InNhbnMtc2VyaWYiIGZvbnQtc2l6ZT0iMTMiIGxlbmd0aEFkanVzdD0ic3BhY2luZyIgdGV4dExlbmd0aD0iMTI5IiB4PSIzMzEiIHk9IjEzOTAuMzIwMyI+UmV0dXJuIEZvb2QgRGV0YWlsczwvdGV4dD48cG9seWdvbiBmaWxsPSIjMTgxODE4IiBwb2ludHM9IjMzLDE0MTcuODU5NCwyMywxNDIxLjg1OTQsMzMsMTQyNS44NTk0LDI5LDE0MjEuODU5NCIgc3R5bGU9InN0cm9rZTojMTgxODE4O3N0cm9rZS13aWR0aDoxLjA7Ii8+PGxpbmUgc3R5bGU9InN0cm9rZTojMTgxODE4O3N0cm9rZS13aWR0aDoxLjA7IiB4MT0iMjciIHgyPSIzMTMiIHkxPSIxNDIxLjg1OTQiIHkyPSIxNDIxLjg1OTQiLz48dGV4dCBmaWxsPSIjMDAwMDAwIiBmb250LWZhbWlseT0ic2Fucy1zZXJpZiIgZm9udC1zaXplPSIxMyIgbGVuZ3RoQWRqdXN0PSJzcGFjaW5nIiB0ZXh0TGVuZ3RoPSIxNTUiIHg9IjM5IiB5PSIxNDE4LjIzNDQiPlJldHVybiBGb29kIEluZm9ybWF0aW9uPC90ZXh0Pjxwb2x5Z29uIGZpbGw9IiMxODE4MTgiIHBvaW50cz0iMzAyLDE0NDUuNzczNCwzMTIsMTQ0OS43NzM0LDMwMiwxNDUzLjc3MzQsMzA2LDE0NDkuNzczNCIgc3R5bGU9InN0cm9rZTojMTgxODE4O3N0cm9rZS13aWR0aDoxLjA7Ii8+PGxpbmUgc3R5bGU9InN0cm9rZTojMTgxODE4O3N0cm9rZS13aWR0aDoxLjA7IiB4MT0iMjIiIHgyPSIzMDgiIHkxPSIxNDQ5Ljc3MzQiIHkyPSIxNDQ5Ljc3MzQiLz48dGV4dCBmaWxsPSIjMDAwMDAwIiBmb250LWZhbWlseT0ic2Fucy1zZXJpZiIgZm9udC1zaXplPSIxMyIgbGVuZ3RoQWRqdXN0PSJzcGFjaW5nIiB0ZXh0TGVuZ3RoPSIxMzYiIHg9IjI5IiB5PSIxNDQ2LjE0ODQiPkdFVCAvZm9vZC1jYXRlZ29yaWVzPC90ZXh0Pjxwb2x5Z29uIGZpbGw9IiMxODE4MTgiIHBvaW50cz0iNTI3LDE0NzMuNjg3NSw1MzcsMTQ3Ny42ODc1LDUyNywxNDgxLjY4NzUsNTMxLDE0NzcuNjg3NSIgc3R5bGU9InN0cm9rZTojMTgxODE4O3N0cm9rZS13aWR0aDoxLjA7Ii8+PGxpbmUgc3R5bGU9InN0cm9rZTojMTgxODE4O3N0cm9rZS13aWR0aDoxLjA7IiB4MT0iMzE0IiB4Mj0iNTMzIiB5MT0iMTQ3Ny42ODc1IiB5Mj0iMTQ3Ny42ODc1Ii8+PHRleHQgZmlsbD0iIzAwMDAwMCIgZm9udC1mYW1pbHk9InNhbnMtc2VyaWYiIGZvbnQtc2l6ZT0iMTMiIGxlbmd0aEFkanVzdD0ic3BhY2luZyIgdGV4dExlbmd0aD0iMTY0IiB4PSIzMjEiIHk9IjE0NzQuMDYyNSI+UmV0cmlldmUgRm9vZCBDYXRlZ29yaWVzPC90ZXh0Pjxwb2x5Z29uIGZpbGw9IiMxODE4MTgiIHBvaW50cz0iMzI1LDE1MDEuNjAxNiwzMTUsMTUwNS42MDE2LDMyNSwxNTA5LjYwMTYsMzIxLDE1MDUuNjAxNiIgc3R5bGU9InN0cm9rZTojMTgxODE4O3N0cm9rZS13aWR0aDoxLjA7Ii8+PGxpbmUgc3R5bGU9InN0cm9rZTojMTgxODE4O3N0cm9rZS13aWR0aDoxLjA7IiB4MT0iMzE5IiB4Mj0iNTM4IiB5MT0iMTUwNS42MDE2IiB5Mj0iMTUwNS42MDE2Ii8+PHRleHQgZmlsbD0iIzAwMDAwMCIgZm9udC1mYW1pbHk9InNhbnMtc2VyaWYiIGZvbnQtc2l6ZT0iMTMiIGxlbmd0aEFkanVzdD0ic3BhY2luZyIgdGV4dExlbmd0aD0iMTUxIiB4PSIzMzEiIHk9IjE1MDEuOTc2NiI+UmV0dXJuIEZvb2QgQ2F0ZWdvcmllczwvdGV4dD48cG9seWdvbiBmaWxsPSIjMTgxODE4IiBwb2ludHM9IjMzLDE1MjkuNTE1NiwyMywxNTMzLjUxNTYsMzMsMTUzNy41MTU2LDI5LDE1MzMuNTE1NiIgc3R5bGU9InN0cm9rZTojMTgxODE4O3N0cm9rZS13aWR0aDoxLjA7Ii8+PGxpbmUgc3R5bGU9InN0cm9rZTojMTgxODE4O3N0cm9rZS13aWR0aDoxLjA7IiB4MT0iMjciIHgyPSIzMTMiIHkxPSIxNTMzLjUxNTYiIHkyPSIxNTMzLjUxNTYiLz48dGV4dCBmaWxsPSIjMDAwMDAwIiBmb250LWZhbWlseT0ic2Fucy1zZXJpZiIgZm9udC1zaXplPSIxMyIgbGVuZ3RoQWRqdXN0PSJzcGFjaW5nIiB0ZXh0TGVuZ3RoPSIyMzAiIHg9IjM5IiB5PSIxNTI5Ljg5MDYiPlJldHVybiBGb29kIENhdGVnb3JpZXMgSW5mb3JtYXRpb248L3RleHQ+PHBvbHlnb24gZmlsbD0iIzE4MTgxOCIgcG9pbnRzPSIzMDIsMTU1Ny40Mjk3LDMxMiwxNTYxLjQyOTcsMzAyLDE1NjUuNDI5NywzMDYsMTU2MS40Mjk3IiBzdHlsZT0ic3Ryb2tlOiMxODE4MTg7c3Ryb2tlLXdpZHRoOjEuMDsiLz48bGluZSBzdHlsZT0ic3Ryb2tlOiMxODE4MTg7c3Ryb2tlLXdpZHRoOjEuMDsiIHgxPSIyMiIgeDI9IjMwOCIgeTE9IjE1NjEuNDI5NyIgeTI9IjE1NjEuNDI5NyIvPjx0ZXh0IGZpbGw9IiMwMDAwMDAiIGZvbnQtZmFtaWx5PSJzYW5zLXNlcmlmIiBmb250LXNpemU9IjEzIiBsZW5ndGhBZGp1c3Q9InNwYWNpbmciIHRleHRMZW5ndGg9IjY4IiB4PSIyOSIgeT0iMTU1Ny44MDQ3Ij5HRVQgL21lbnVzPC90ZXh0Pjxwb2x5Z29uIGZpbGw9IiMxODE4MTgiIHBvaW50cz0iNTI3LDE1ODUuMzQzOCw1MzcsMTU4OS4zNDM4LDUyNywxNTkzLjM0MzgsNTMxLDE1ODkuMzQzOCIgc3R5bGU9InN0cm9rZTojMTgxODE4O3N0cm9rZS13aWR0aDoxLjA7Ii8+PGxpbmUgc3R5bGU9InN0cm9rZTojMTgxODE4O3N0cm9rZS13aWR0aDoxLjA7IiB4MT0iMzE0IiB4Mj0iNTMzIiB5MT0iMTU4OS4zNDM4IiB5Mj0iMTU4OS4zNDM4Ii8+PHRleHQgZmlsbD0iIzAwMDAwMCIgZm9udC1mYW1pbHk9InNhbnMtc2VyaWYiIGZvbnQtc2l6ZT0iMTMiIGxlbmd0aEFkanVzdD0ic3BhY2luZyIgdGV4dExlbmd0aD0iOTYiIHg9IjMyMSIgeT0iMTU4NS43MTg4Ij5SZXRyaWV2ZSBNZW51czwvdGV4dD48cG9seWdvbiBmaWxsPSIjMTgxODE4IiBwb2ludHM9IjMyNSwxNjEzLjI1NzgsMzE1LDE2MTcuMjU3OCwzMjUsMTYyMS4yNTc4LDMyMSwxNjE3LjI1NzgiIHN0eWxlPSJzdHJva2U6IzE4MTgxODtzdHJva2Utd2lkdGg6MS4wOyIvPjxsaW5lIHN0eWxlPSJzdHJva2U6IzE4MTgxODtzdHJva2Utd2lkdGg6MS4wOyIgeDE9IjMxOSIgeDI9IjUzOCIgeTE9IjE2MTcuMjU3OCIgeTI9IjE2MTcuMjU3OCIvPjx0ZXh0IGZpbGw9IiMwMDAwMDAiIGZvbnQtZmFtaWx5PSJzYW5zLXNlcmlmIiBmb250LXNpemU9IjEzIiBsZW5ndGhBZGp1c3Q9InNwYWNpbmciIHRleHRMZW5ndGg9IjgzIiB4PSIzMzEiIHk9IjE2MTMuNjMyOCI+UmV0dXJuIE1lbnVzPC90ZXh0Pjxwb2x5Z29uIGZpbGw9IiMxODE4MTgiIHBvaW50cz0iMzMsMTY0MS4xNzE5LDIzLDE2NDUuMTcxOSwzMywxNjQ5LjE3MTksMjksMTY0NS4xNzE5IiBzdHlsZT0ic3Ryb2tlOiMxODE4MTg7c3Ryb2tlLXdpZHRoOjEuMDsiLz48bGluZSBzdHlsZT0ic3Ryb2tlOiMxODE4MTg7c3Ryb2tlLXdpZHRoOjEuMDsiIHgxPSIyNyIgeDI9IjMxMyIgeTE9IjE2NDUuMTcxOSIgeTI9IjE2NDUuMTcxOSIvPjx0ZXh0IGZpbGw9IiMwMDAwMDAiIGZvbnQtZmFtaWx5PSJzYW5zLXNlcmlmIiBmb250LXNpemU9IjEzIiBsZW5ndGhBZGp1c3Q9InNwYWNpbmciIHRleHRMZW5ndGg9IjE1NSIgeD0iMzkiIHk9IjE2NDEuNTQ2OSI+UmV0dXJuIE1lbnUgSW5mb3JtYXRpb248L3RleHQ+PHBvbHlnb24gZmlsbD0iIzE4MTgxOCIgcG9pbnRzPSIzMDIsMTY2OS4wODU5LDMxMiwxNjczLjA4NTksMzAyLDE2NzcuMDg1OSwzMDYsMTY3My4wODU5IiBzdHlsZT0ic3Ryb2tlOiMxODE4MTg7c3Ryb2tlLXdpZHRoOjEuMDsiLz48bGluZSBzdHlsZT0ic3Ryb2tlOiMxODE4MTg7c3Ryb2tlLXdpZHRoOjEuMDsiIHgxPSIyMiIgeDI9IjMwOCIgeTE9IjE2NzMuMDg1OSIgeTI9IjE2NzMuMDg1OSIvPjx0ZXh0IGZpbGw9IiMwMDAwMDAiIGZvbnQtZmFtaWx5PSJzYW5zLXNlcmlmIiBmb250LXNpemU9IjEzIiBsZW5ndGhBZGp1c3Q9InNwYWNpbmciIHRleHRMZW5ndGg9Ijc0IiB4PSIyOSIgeT0iMTY2OS40NjA5Ij5HRVQgL29mZmVyczwvdGV4dD48cG9seWdvbiBmaWxsPSIjMTgxODE4IiBwb2ludHM9IjUyNywxNjk3LDUzNywxNzAxLDUyNywxNzA1LDUzMSwxNzAxIiBzdHlsZT0ic3Ryb2tlOiMxODE4MTg7c3Ryb2tlLXdpZHRoOjEuMDsiLz48bGluZSBzdHlsZT0ic3Ryb2tlOiMxODE4MTg7c3Ryb2tlLXdpZHRoOjEuMDsiIHgxPSIzMTQiIHgyPSI1MzMiIHkxPSIxNzAxIiB5Mj0iMTcwMSIvPjx0ZXh0IGZpbGw9IiMwMDAwMDAiIGZvbnQtZmFtaWx5PSJzYW5zLXNlcmlmIiBmb250LXNpemU9IjEzIiBsZW5ndGhBZGp1c3Q9InNwYWNpbmciIHRleHRMZW5ndGg9IjEwMSIgeD0iMzIxIiB5PSIxNjk3LjM3NSI+UmV0cmlldmUgT2ZmZXJzPC90ZXh0Pjxwb2x5Z29uIGZpbGw9IiMxODE4MTgiIHBvaW50cz0iMzI1LDE3MjQuOTE0MSwzMTUsMTcyOC45MTQxLDMyNSwxNzMyLjkxNDEsMzIxLDE3MjguOTE0MSIgc3R5bGU9InN0cm9rZTojMTgxODE4O3N0cm9rZS13aWR0aDoxLjA7Ii8+PGxpbmUgc3R5bGU9InN0cm9rZTojMTgxODE4O3N0cm9rZS13aWR0aDoxLjA7IiB4MT0iMzE5IiB4Mj0iNTM4IiB5MT0iMTcyOC45MTQxIiB5Mj0iMTcyOC45MTQxIi8+PHRleHQgZmlsbD0iIzAwMDAwMCIgZm9udC1mYW1pbHk9InNhbnMtc2VyaWYiIGZvbnQtc2l6ZT0iMTMiIGxlbmd0aEFkanVzdD0ic3BhY2luZyIgdGV4dExlbmd0aD0iODgiIHg9IjMzMSIgeT0iMTcyNS4yODkxIj5SZXR1cm4gT2ZmZXJzPC90ZXh0Pjxwb2x5Z29uIGZpbGw9IiMxODE4MTgiIHBvaW50cz0iMzMsMTc1Mi44MjgxLDIzLDE3NTYuODI4MSwzMywxNzYwLjgyODEsMjksMTc1Ni44MjgxIiBzdHlsZT0ic3Ryb2tlOiMxODE4MTg7c3Ryb2tlLXdpZHRoOjEuMDsiLz48bGluZSBzdHlsZT0ic3Ryb2tlOiMxODE4MTg7c3Ryb2tlLXdpZHRoOjEuMDsiIHgxPSIyNyIgeDI9IjMxMyIgeTE9IjE3NTYuODI4MSIgeTI9IjE3NTYuODI4MSIvPjx0ZXh0IGZpbGw9IiMwMDAwMDAiIGZvbnQtZmFtaWx5PSJzYW5zLXNlcmlmIiBmb250LXNpemU9IjEzIiBsZW5ndGhBZGp1c3Q9InNwYWNpbmciIHRleHRMZW5ndGg9IjE2MCIgeD0iMzkiIHk9IjE3NTMuMjAzMSI+UmV0dXJuIE9mZmVyIEluZm9ybWF0aW9uPC90ZXh0Pjxwb2x5Z29uIGZpbGw9IiMxODE4MTgiIHBvaW50cz0iMzI1LDE3ODAuNzQyMiwzMTUsMTc4NC43NDIyLDMyNSwxNzg4Ljc0MjIsMzIxLDE3ODQuNzQyMiIgc3R5bGU9InN0cm9rZTojMTgxODE4O3N0cm9rZS13aWR0aDoxLjA7Ii8+PGxpbmUgc3R5bGU9InN0cm9rZTojMTgxODE4O3N0cm9rZS13aWR0aDoxLjA7IiB4MT0iMzE5IiB4Mj0iNjIxIiB5MT0iMTc4NC43NDIyIiB5Mj0iMTc4NC43NDIyIi8+PHRleHQgZmlsbD0iIzAwMDAwMCIgZm9udC1mYW1pbHk9InNhbnMtc2VyaWYiIGZvbnQtc2l6ZT0iMTMiIGxlbmd0aEFkanVzdD0ic3BhY2luZyIgdGV4dExlbmd0aD0iMjY0IiB4PSIzMzEiIHk9IjE3ODEuMTE3MiI+UE9TVCAvcmVzdGF1cmFudHMve3Jlc3RhdXJhbnRfaWR9L2Zvb2RzPC90ZXh0Pjxwb2x5Z29uIGZpbGw9IiMxODE4MTgiIHBvaW50cz0iNTI3LDE4MDguNjU2Myw1MzcsMTgxMi42NTYzLDUyNywxODE2LjY1NjMsNTMxLDE4MTIuNjU2MyIgc3R5bGU9InN0cm9rZTojMTgxODE4O3N0cm9rZS13aWR0aDoxLjA7Ii8+PGxpbmUgc3R5bGU9InN0cm9rZTojMTgxODE4O3N0cm9rZS13aWR0aDoxLjA7IiB4MT0iMzE0IiB4Mj0iNTMzIiB5MT0iMTgxMi42NTYzIiB5Mj0iMTgxMi42NTYzIi8+PHRleHQgZmlsbD0iIzAwMDAwMCIgZm9udC1mYW1pbHk9InNhbnMtc2VyaWYiIGZvbnQtc2l6ZT0iMTMiIGxlbmd0aEFkanVzdD0ic3BhY2luZyIgdGV4dExlbmd0aD0iMTExIiB4PSIzMjEiIHk9IjE4MDkuMDMxMyI+QWRkIEZvb2QgdG8gTWVudTwvdGV4dD48cG9seWdvbiBmaWxsPSIjMTgxODE4IiBwb2ludHM9IjMyNSwxODM2LjU3MDMsMzE1LDE4NDAuNTcwMywzMjUsMTg0NC41NzAzLDMyMSwxODQwLjU3MDMiIHN0eWxlPSJzdHJva2U6IzE4MTgxODtzdHJva2Utd2lkdGg6MS4wOyIvPjxsaW5lIHN0eWxlPSJzdHJva2U6IzE4MTgxODtzdHJva2Utd2lkdGg6MS4wOyIgeDE9IjMxOSIgeDI9IjUzOCIgeTE9IjE4NDAuNTcwMyIgeTI9IjE4NDAuNTcwMyIvPjx0ZXh0IGZpbGw9IiMwMDAwMDAiIGZvbnQtZmFtaWx5PSJzYW5zLXNlcmlmIiBmb250LXNpemU9IjEzIiBsZW5ndGhBZGp1c3Q9InNwYWNpbmciIHRleHRMZW5ndGg9IjE3MyIgeD0iMzMxIiB5PSIxODM2Ljk0NTMiPlJldHVybiBGb29kIEFkZGVkIHRvIE1lbnU8L3RleHQ+PHBvbHlnb24gZmlsbD0iIzE4MTgxOCIgcG9pbnRzPSI2MTAsMTg2NC40ODQ0LDYyMCwxODY4LjQ4NDQsNjEwLDE4NzIuNDg0NCw2MTQsMTg2OC40ODQ0IiBzdHlsZT0ic3Ryb2tlOiMxODE4MTg7c3Ryb2tlLXdpZHRoOjEuMDsiLz48bGluZSBzdHlsZT0ic3Ryb2tlOiMxODE4MTg7c3Ryb2tlLXdpZHRoOjEuMDsiIHgxPSIzMTQiIHgyPSI2MTYiIHkxPSIxODY4LjQ4NDQiIHkyPSIxODY4LjQ4NDQiLz48dGV4dCBmaWxsPSIjMDAwMDAwIiBmb250LWZhbWlseT0ic2Fucy1zZXJpZiIgZm9udC1zaXplPSIxMyIgbGVuZ3RoQWRqdXN0PSJzcGFjaW5nIiB0ZXh0TGVuZ3RoPSIxMjUiIHg9IjMyMSIgeT0iMTg2NC44NTk0Ij5Gb29kIEFkZGVkIHRvIE1lbnU8L3RleHQ+PHBvbHlnb24gZmlsbD0iIzE4MTgxOCIgcG9pbnRzPSIzMjUsMTg5Mi4zOTg0LDMxNSwxODk2LjM5ODQsMzI1LDE5MDAuMzk4NCwzMjEsMTg5Ni4zOTg0IiBzdHlsZT0ic3Ryb2tlOiMxODE4MTg7c3Ryb2tlLXdpZHRoOjEuMDsiLz48bGluZSBzdHlsZT0ic3Ryb2tlOiMxODE4MTg7c3Ryb2tlLXdpZHRoOjEuMDsiIHgxPSIzMTkiIHgyPSI2MjEiIHkxPSIxODk2LjM5ODQiIHkyPSIxODk2LjM5ODQiLz48dGV4dCBmaWxsPSIjMDAwMDAwIiBmb250LWZhbWlseT0ic2Fucy1zZXJpZiIgZm9udC1zaXplPSIxMyIgbGVuZ3RoQWRqdXN0PSJzcGFjaW5nIiB0ZXh0TGVuZ3RoPSIxMzQiIHg9IjMzMSIgeT0iMTg5Mi43NzM0Ij5QVVQgL2Zvb2RzL3tmb29kX2lkfTwvdGV4dD48cG9seWdvbiBmaWxsPSIjMTgxODE4IiBwb2ludHM9IjUyNywxOTIwLjMxMjUsNTM3LDE5MjQuMzEyNSw1MjcsMTkyOC4zMTI1LDUzMSwxOTI0LjMxMjUiIHN0eWxlPSJzdHJva2U6IzE4MTgxODtzdHJva2Utd2lkdGg6MS4wOyIvPjxsaW5lIHN0eWxlPSJzdHJva2U6IzE4MTgxODtzdHJva2Utd2lkdGg6MS4wOyIgeDE9IjMxNCIgeDI9IjUzMyIgeTE9IjE5MjQuMzEyNSIgeTI9IjE5MjQuMzEyNSIvPjx0ZXh0IGZpbGw9IiMwMDAwMDAiIGZvbnQtZmFtaWx5PSJzYW5zLXNlcmlmIiBmb250LXNpemU9IjEzIiBsZW5ndGhBZGp1c3Q9InNwYWNpbmciIHRleHRMZW5ndGg9IjEyOSIgeD0iMzIxIiB5PSIxOTIwLjY4NzUiPlVwZGF0ZSBGb29kIERldGFpbHM8L3RleHQ+PHBvbHlnb24gZmlsbD0iIzE4MTgxOCIgcG9pbnRzPSIzMjUsMTk0OC4yMjY2LDMxNSwxOTUyLjIyNjYsMzI1LDE5NTYuMjI2NiwzMjEsMTk1Mi4yMjY2IiBzdHlsZT0ic3Ryb2tlOiMxODE4MTg7c3Ryb2tlLXdpZHRoOjEuMDsiLz48bGluZSBzdHlsZT0ic3Ryb2tlOiMxODE4MTg7c3Ryb2tlLXdpZHRoOjEuMDsiIHgxPSIzMTkiIHgyPSI1MzgiIHkxPSIxOTUyLjIyNjYiIHkyPSIxOTUyLjIyNjYiLz48dGV4dCBmaWxsPSIjMDAwMDAwIiBmb250LWZhbWlseT0ic2Fucy1zZXJpZiIgZm9udC1zaXplPSIxMyIgbGVuZ3RoQWRqdXN0PSJzcGFjaW5nIiB0ZXh0TGVuZ3RoPSIxODQiIHg9IjMzMSIgeT0iMTk0OC42MDE2Ij5SZXR1cm4gVXBkYXRlZCBGb29kIERldGFpbHM8L3RleHQ+PHBvbHlnb24gZmlsbD0iIzE4MTgxOCIgcG9pbnRzPSI2MTAsMTk3Ni4xNDA2LDYyMCwxOTgwLjE0MDYsNjEwLDE5ODQuMTQwNiw2MTQsMTk4MC4xNDA2IiBzdHlsZT0ic3Ryb2tlOiMxODE4MTg7c3Ryb2tlLXdpZHRoOjEuMDsiLz48bGluZSBzdHlsZT0ic3Ryb2tlOiMxODE4MTg7c3Ryb2tlLXdpZHRoOjEuMDsiIHgxPSIzMTQiIHgyPSI2MTYiIHkxPSIxOTgwLjE0MDYiIHkyPSIxOTgwLjE0MDYiLz48dGV4dCBmaWxsPSIjMDAwMDAwIiBmb250LWZhbWlseT0ic2Fucy1zZXJpZiIgZm9udC1zaXplPSIxMyIgbGVuZ3RoQWRqdXN0PSJzcGFjaW5nIiB0ZXh0TGVuZ3RoPSI4MyIgeD0iMzIxIiB5PSIxOTc2LjUxNTYiPkZvb2QgVXBkYXRlZDwvdGV4dD48cG9seWdvbiBmaWxsPSIjMTgxODE4IiBwb2ludHM9IjMyNSwyMDA0LjA1NDcsMzE1LDIwMDguMDU0NywzMjUsMjAxMi4wNTQ3LDMyMSwyMDA4LjA1NDciIHN0eWxlPSJzdHJva2U6IzE4MTgxODtzdHJva2Utd2lkdGg6MS4wOyIvPjxsaW5lIHN0eWxlPSJzdHJva2U6IzE4MTgxODtzdHJva2Utd2lkdGg6MS4wOyIgeDE9IjMxOSIgeDI9IjYyMSIgeTE9IjIwMDguMDU0NyIgeTI9IjIwMDguMDU0NyIvPjx0ZXh0IGZpbGw9IiMwMDAwMDAiIGZvbnQtZmFtaWx5PSJzYW5zLXNlcmlmIiBmb250LXNpemU9IjEzIiBsZW5ndGhBZGp1c3Q9InNwYWNpbmciIHRleHRMZW5ndGg9IjE1NSIgeD0iMzMxIiB5PSIyMDA0LjQyOTciPkRFTEVURSAvZm9vZHMve2Zvb2RfaWR9PC90ZXh0Pjxwb2x5Z29uIGZpbGw9IiMxODE4MTgiIHBvaW50cz0iNTI3LDIwMzEuOTY4OCw1MzcsMjAzNS45Njg4LDUyNywyMDM5Ljk2ODgsNTMxLDIwMzUuOTY4OCIgc3R5bGU9InN0cm9rZTojMTgxODE4O3N0cm9rZS13aWR0aDoxLjA7Ii8+PGxpbmUgc3R5bGU9InN0cm9rZTojMTgxODE4O3N0cm9rZS13aWR0aDoxLjA7IiB4MT0iMzE0IiB4Mj0iNTMzIiB5MT0iMjAzNS45Njg4IiB5Mj0iMjAzNS45Njg4Ii8+PHRleHQgZmlsbD0iIzAwMDAwMCIgZm9udC1mYW1pbHk9InNhbnMtc2VyaWYiIGZvbnQtc2l6ZT0iMTMiIGxlbmd0aEFkanVzdD0ic3BhY2luZyIgdGV4dExlbmd0aD0iMTQzIiB4PSIzMjEiIHk9IjIwMzIuMzQzOCI+RGVsZXRlIEZvb2QgZnJvbSBNZW51PC90ZXh0Pjxwb2x5Z29uIGZpbGw9IiMxODE4MTgiIHBvaW50cz0iMzI1LDIwNTkuODgyOCwzMTUsMjA2My44ODI4LDMyNSwyMDY3Ljg4MjgsMzIxLDIwNjMuODgyOCIgc3R5bGU9InN0cm9rZTojMTgxODE4O3N0cm9rZS13aWR0aDoxLjA7Ii8+PGxpbmUgc3R5bGU9InN0cm9rZTojMTgxODE4O3N0cm9rZS13aWR0aDoxLjA7IiB4MT0iMzE5IiB4Mj0iNTM4IiB5MT0iMjA2My44ODI4IiB5Mj0iMjA2My44ODI4Ii8+PHRleHQgZmlsbD0iIzAwMDAwMCIgZm9udC1mYW1pbHk9InNhbnMtc2VyaWYiIGZvbnQtc2l6ZT0iMTMiIGxlbmd0aEFkanVzdD0ic3BhY2luZyIgdGV4dExlbmd0aD0iMTg3IiB4PSIzMzEiIHk9IjIwNjAuMjU3OCI+UmV0dXJuIERlbGV0aW9uIENvbmZpcm1hdGlvbjwvdGV4dD48cG9seWdvbiBmaWxsPSIjMTgxODE4IiBwb2ludHM9IjYxMCwyMDg3Ljc5NjksNjIwLDIwOTEuNzk2OSw2MTAsMjA5NS43OTY5LDYxNCwyMDkxLjc5NjkiIHN0eWxlPSJzdHJva2U6IzE4MTgxODtzdHJva2Utd2lkdGg6MS4wOyIvPjxsaW5lIHN0eWxlPSJzdHJva2U6IzE4MTgxODtzdHJva2Utd2lkdGg6MS4wOyIgeDE9IjMxNCIgeDI9IjYxNiIgeTE9IjIwOTEuNzk2OSIgeTI9IjIwOTEuNzk2OSIvPjx0ZXh0IGZpbGw9IiMwMDAwMDAiIGZvbnQtZmFtaWx5PSJzYW5zLXNlcmlmIiBmb250LXNpemU9IjEzIiBsZW5ndGhBZGp1c3Q9InNwYWNpbmciIHRleHRMZW5ndGg9IjgyIiB4PSIzMjEiIHk9IjIwODguMTcxOSI+Rm9vZCBEZWxldGVkPC90ZXh0Pjxwb2x5Z29uIGZpbGw9IiMxODE4MTgiIHBvaW50cz0iMzI1LDIxMTUuNzEwOSwzMTUsMjExOS43MTA5LDMyNSwyMTIzLjcxMDksMzIxLDIxMTkuNzEwOSIgc3R5bGU9InN0cm9rZTojMTgxODE4O3N0cm9rZS13aWR0aDoxLjA7Ii8+PGxpbmUgc3R5bGU9InN0cm9rZTojMTgxODE4O3N0cm9rZS13aWR0aDoxLjA7IiB4MT0iMzE5IiB4Mj0iNjIxIiB5MT0iMjExOS43MTA5IiB5Mj0iMjExOS43MTA5Ii8+PHRleHQgZmlsbD0iIzAwMDAwMCIgZm9udC1mYW1pbHk9InNhbnMtc2VyaWYiIGZvbnQtc2l6ZT0iMTMiIGxlbmd0aEFkanVzdD0ic3BhY2luZyIgdGV4dExlbmd0aD0iMjY1IiB4PSIzMzEiIHk9IjIxMTYuMDg1OSI+R0VUIC9yZXN0YXVyYW50cy97cmVzdGF1cmFudF9pZH0vb3JkZXJzPC90ZXh0Pjxwb2x5Z29uIGZpbGw9IiMxODE4MTgiIHBvaW50cz0iNTI3LDIxNDMuNjI1LDUzNywyMTQ3LjYyNSw1MjcsMjE1MS42MjUsNTMxLDIxNDcuNjI1IiBzdHlsZT0ic3Ryb2tlOiMxODE4MTg7c3Ryb2tlLXdpZHRoOjEuMDsiLz48bGluZSBzdHlsZT0ic3Ryb2tlOiMxODE4MTg7c3Ryb2tlLXdpZHRoOjEuMDsiIHgxPSIzMTQiIHgyPSI1MzMiIHkxPSIyMTQ3LjYyNSIgeTI9IjIxNDcuNjI1Ii8+PHRleHQgZmlsbD0iIzAwMDAwMCIgZm9udC1mYW1pbHk9InNhbnMtc2VyaWYiIGZvbnQtc2l6ZT0iMTMiIGxlbmd0aEFkanVzdD0ic3BhY2luZyIgdGV4dExlbmd0aD0iMTc4IiB4PSIzMjEiIHk9IjIxNDQiPlJldHJpZXZlIFJlc3RhdXJhbnQgT3JkZXJzPC90ZXh0Pjxwb2x5Z29uIGZpbGw9IiMxODE4MTgiIHBvaW50cz0iMzI1LDIxNzEuNTM5MSwzMTUsMjE3NS41MzkxLDMyNSwyMTc5LjUzOTEsMzIxLDIxNzUuNTM5MSIgc3R5bGU9InN0cm9rZTojMTgxODE4O3N0cm9rZS13aWR0aDoxLjA7Ii8+PGxpbmUgc3R5bGU9InN0cm9rZTojMTgxODE4O3N0cm9rZS13aWR0aDoxLjA7IiB4MT0iMzE5IiB4Mj0iNTM4IiB5MT0iMjE3NS41MzkxIiB5Mj0iMjE3NS41MzkxIi8+PHRleHQgZmlsbD0iIzAwMDAwMCIgZm9udC1mYW1pbHk9InNhbnMtc2VyaWYiIGZvbnQtc2l6ZT0iMTMiIGxlbmd0aEFkanVzdD0ic3BhY2luZyIgdGV4dExlbmd0aD0iOTAiIHg9IjMzMSIgeT0iMjE3MS45MTQxIj5SZXR1cm4gT3JkZXJzPC90ZXh0Pjxwb2x5Z29uIGZpbGw9IiMxODE4MTgiIHBvaW50cz0iNjEwLDIxOTkuNDUzMSw2MjAsMjIwMy40NTMxLDYxMCwyMjA3LjQ1MzEsNjE0LDIyMDMuNDUzMSIgc3R5bGU9InN0cm9rZTojMTgxODE4O3N0cm9rZS13aWR0aDoxLjA7Ii8+PGxpbmUgc3R5bGU9InN0cm9rZTojMTgxODE4O3N0cm9rZS13aWR0aDoxLjA7IiB4MT0iMzE0IiB4Mj0iNjE2IiB5MT0iMjIwMy40NTMxIiB5Mj0iMjIwMy40NTMxIi8+PHRleHQgZmlsbD0iIzAwMDAwMCIgZm9udC1mYW1pbHk9InNhbnMtc2VyaWYiIGZvbnQtc2l6ZT0iMTMiIGxlbmd0aEFkanVzdD0ic3BhY2luZyIgdGV4dExlbmd0aD0iMTY5IiB4PSIzMjEiIHk9IjIxOTkuODI4MSI+UmV0dXJuIE9yZGVycyBJbmZvcm1hdGlvbjwvdGV4dD48IS0tU1JDPVtqUFYxUmppbTM4UmxVR2hUVGJjSFVtdTNrWUdUMmhIZWJaTXgzZ2ViUHFQWm92TmIzYU1uVG56OUlSUmJJN1JIT2dVcThsTmg4cU1BMlMtQ3FrcEdJQnNHYklkQzJ4bFNOVmlfRHpwbTF6eDhuVThKa0owamRyaFBjOE9QblVlSnBvSlo1TERRbTZ3b050cDF4SWtza19qbnB2UXlCZlBhUjFRbVlhT2xrNjhfLVFhR3Q0WnNiSlVGcVlveWZQRk9JekZnb2ZkUFRQTWhTdjZyYllYblhzVjBYV21FSW1mUGZ1cXFsM1hyRjBZelNZT2g5Z0FuUWRhaTZYRUZpZU1iUGpidmYyRWJsUllVUDJJRndxcjhIdWp4OXZfV0V3YlpLUU5YaDNiRFRlRHNKODMwWS1VR2RxZDJRMUI5MGE5N0FVMnNFaWdzblhDUUxja0w1b1N2T1pucVlBX3V5UWlHVnl5bjN0TVZsZnNKSVZBSGh2WldUMGhVaW1GYkdaSWlDQkI0VjN4T2VlbWFyNWZ3dDJMa1lUSnRmTzBxRUJNUDRsVkNwWXNXOUdkRzBkQ2xyNVQwZ1B3YmV5d3JBZ0ZTYy10RHpkd1I4Yi0gLXZhZzlVRUJ0ZjZ5UElGd1pXTFgxNE9ZRDJ1TTJVTWd2Vk82V0JBRHRTUlhfSnEya2FlWmItIC0yOFp5UkxRT3NCMmdlLWFyOUdac1FfUFZRZXNoVExMVVN5enQybzc5eGxqVlYtbzJrd3VveWJqRl9TRS1oVGVpdGJHVFhRYlZMOTZsYVAtbXJKVzFibU14bGliRm1IQmZvcHNncjc0a0RDcE4tYnppUm4xN1drdjlfNlpaU2N0Q1EweVRpTTRFczRNeHhJUHdnSFoyeGFpbm1EZU5VQ2dpMDNockVOdDFJZzZaNVoycW1XZXRjY3ludG01R2hEeUdQRUNMbm9jQTdEOEZMNzFRVWNXMnk2N1pGMHd6dnBhZGJ6ZmRZRXRWakNIMDNicXFRbVNOYUF6ZlJpQVNKUnVVdTAzMnFKRDJoRnlKak5mNUlqT1E4LWhLRW9DOEZ6T0tNWVFTb3FYLXlkbERObUVEaG5JWFNEM202YlFzMENVcnZ0MWdaSF9Yenc1d2JvdXpGc29lYlpTZ1FsbFBrZHZFaDRVZm5McDJrQ25XLWhlQ3pZMEh0VXFjcmtCQnNmcl9taVlsTlNNR1kzU0pJMDRuOVZQV1RGZXBYcjdfd2htc200NnZBcVh2Qll2Mk1HRHZHOEo4YWdCdG96ZjhBbXNrQ1cxY3pwREZES3hyRUxiRmZYcWxOMkdGSkUtYXctcno1UjIxbzZ0VjRGXS0tPjwvZz48L3N2Zz4=;" vertex="1" parent="WIyWlLk6GJQsqaUBKTNV-1">
            <mxGeometry y="-1169" width="670" height="2300" as="geometry" />
          </mxCell>
        </UserObject>
      </root>
    </mxGraphModel>
  </diagram>
</mxfile>
